<?xml version="1.0" encoding="UTF-8" standalone="no"?>
<!-- Created with Inkscape (http://www.inkscape.org/) -->

<svg
   width="350mm"
   height="350mm"
   viewBox="0 0 350 350"
   version="1.1"
   id="svg1"
   inkscape:version="1.3 (0e150ed, 2023-07-21)"
   sodipodi:docname="adventni_top_small.svg"
   xml:space="preserve"
   xmlns:inkscape="http://www.inkscape.org/namespaces/inkscape"
   xmlns:sodipodi="http://sodipodi.sourceforge.net/DTD/sodipodi-0.dtd"
   xmlns="http://www.w3.org/2000/svg"
   xmlns:svg="http://www.w3.org/2000/svg"><sodipodi:namedview
     id="namedview1"
     pagecolor="#ffffff"
     bordercolor="#666666"
     borderopacity="1.0"
     inkscape:showpageshadow="2"
     inkscape:pageopacity="0.0"
     inkscape:pagecheckerboard="0"
     inkscape:deskcolor="#d1d1d1"
     inkscape:document-units="mm"
     inkscape:zoom="0.5038796"
     inkscape:cx="732.3178"
     inkscape:cy="628.12624"
     inkscape:window-width="1512"
     inkscape:window-height="916"
     inkscape:window-x="0"
     inkscape:window-y="38"
     inkscape:window-maximized="0"
     inkscape:current-layer="layer1"
     showgrid="false" /><defs
     id="defs1" /><g
     inkscape:label="Layer 1"
     inkscape:groupmode="layer"
     id="layer1"><rect
       style="fill:none;stroke:#000000;stroke-width:0.1825;stroke-linecap:butt;stroke-linejoin:round;stroke-dasharray:none;stroke-dashoffset:0;stroke-opacity:1"
       id="rect1"
       width="249.8175"
       height="249.8175"
       x="50.091248"
       y="50.091248"
       ry="9.2299585"
       rx="9.2299585" /><path
       id="rect2-8-7"
       style="color:#000000;fill:#000000;fill-opacity:1;stroke-linejoin:round;stroke-dasharray:2.86946, 1.43473;-inkscape-stroke:none"
       d="m 107.98817,60.216678 v 0.179834 h -0.17983 v 0.183968 h 0.3576 v -0.0062 h 2.69131 v -0.357602 z m 4.30259,0 v 0.357601 h 2.87114 v -0.357601 z m 4.30464,0 v 0.357601 h 2.86908 v -0.357601 z m 4.30465,0 v 0.357601 h 2.86907 v -0.357601 z m 4.30465,0 v 0.357601 h 2.86907 v -0.357601 z m 4.30309,0 v 0.357601 h 2.87115 v -0.357601 z m 4.30465,0 v 0.357601 h 2.86908 v -0.357601 z m 4.30465,0 v 0.357601 h 2.86908 v -0.357601 z m 4.30467,0 v 0.357601 h 2.86908 v -0.357601 z m 4.30258,0 v 0.253731 l -0.0739,-0.0739 v 2.765723 h 0.35709 v -2.765723 a 0.17935943,0.17935943 0 0 0 -0.17932,-0.179834 z m -0.0739,4.379061 v 2.871143 h 0.35709 v -2.871143 z m 0,4.304647 v 2.869076 h 0.35709 v -2.869076 z m 0,4.304647 v 2.869076 h 0.35709 v -2.869076 z m 0,4.304647 v 2.869075 h 0.35709 V 77.50968 Z m 0,4.30258 v 2.871142 h 0.35709 V 81.81226 Z m 0,4.304646 v 2.869593 h 0.35709 v -2.869593 z m 0,4.305164 v 2.869076 h 0.35709 V 90.42207 Z m 0,4.304647 v 2.869075 h 0.35709 v -2.869075 z m 0,4.30258 v 0.02945 h -2.4846 v 0.357084 h 2.66237 a 0.17935943,0.17935943 0 0 0 0.17932,-0.179317 v -0.207222 z m -38.8421,0.02274 v 0.184485 a 0.17935943,0.17935943 0 0 0 0.17983,0.179317 h 0.31058 v -0.357087 h -0.13281 v -0.0067 z m 1.92391,0.0067 v 0.357084 h 2.86908 v -0.357084 z m 4.30465,0 v 0.357084 h 2.86907 v -0.357084 z m 4.30465,0 v 0.357084 h 2.86907 v -0.357084 z m 4.30464,0 v 0.357084 h 2.86908 v -0.357084 z m 4.30258,0 v 0.357084 h 2.8696 v -0.357084 z m 4.30517,0 v 0.357084 h 2.86907 v -0.357084 z m 4.30464,0 v 0.357084 h 2.86909 v -0.357084 z m 4.30467,0 v 0.357084 h 2.86907 v -0.357084 z" /><path
       id="rect2-8-7-5"
       style="color:#000000;fill:#000000;fill-opacity:1;stroke-linejoin:round;stroke-dasharray:2.86946, 1.43473;-inkscape-stroke:none"
       d="m 155.58983,60.216678 v 0.179834 H 155.41 v 0.183968 h 0.3576 v -0.0062 h 2.69131 v -0.357602 z m 4.30259,0 v 0.357601 h 2.87114 v -0.357601 z m 4.30464,0 v 0.357601 h 2.86908 v -0.357601 z m 4.30465,0 v 0.357601 h 2.86907 v -0.357601 z m 4.30464,0 v 0.357601 h 2.86908 v -0.357601 z m 4.30311,0 v 0.357601 h 2.87113 v -0.357601 z m 4.30464,0 v 0.357601 h 2.86908 v -0.357601 z m 4.30466,0 v 0.357601 h 2.86906 v -0.357601 z m 4.30464,0 v 0.357601 h 2.86907 v -0.357601 z m 4.30257,0 v 0.253731 l -0.0739,-0.0739 v 2.765723 h 0.35709 v -2.765723 a 0.17935943,0.17935943 0 0 0 -0.17932,-0.179834 z m -0.0739,4.379061 v 2.871143 h 0.35709 v -2.871143 z m 0,4.304647 v 2.869076 h 0.35709 v -2.869076 z m 0,4.304647 v 2.869076 h 0.35709 v -2.869076 z m 0,4.304647 v 2.869075 h 0.35709 V 77.50968 Z m 0,4.30258 v 2.871142 h 0.35709 V 81.81226 Z m 0,4.304646 v 2.869593 h 0.35709 v -2.869593 z m 0,4.305164 v 2.869076 h 0.35709 V 90.42207 Z m 0,4.304647 v 2.869075 h 0.35709 v -2.869075 z m 0,4.30258 v 0.02945 h -2.4846 v 0.357084 h 2.66237 a 0.17935943,0.17935943 0 0 0 0.17932,-0.179317 V 99.029292 Z M 155.41,99.052037 v 0.184485 a 0.17935943,0.17935943 0 0 0 0.17984,0.179317 h 0.31057 v -0.357087 h -0.13281 v -0.0067 z m 1.92392,0.0067 v 0.357084 h 2.86908 v -0.357084 z m 4.30465,0 v 0.357084 h 2.86908 v -0.357084 z m 4.30464,0 v 0.357084 h 2.86908 v -0.357084 z m 4.30466,0 v 0.357084 h 2.86906 v -0.357084 z m 4.30258,0 v 0.357084 h 2.86959 v -0.357084 z m 4.30516,0 v 0.357084 h 2.86908 v -0.357084 z m 4.30465,0 v 0.357084 h 2.86907 v -0.357084 z m 4.30464,0 v 0.357084 h 2.86907 v -0.357084 z" /><path
       id="rect2-8-7-5-9"
       style="color:#000000;fill:#000000;fill-opacity:1;stroke-linejoin:round;stroke-dasharray:2.86946, 1.43473;-inkscape-stroke:none"
       d="m 203.17943,60.216678 v 0.179834 h -0.17982 v 0.183968 h 0.3576 v -0.0062 h 2.69131 v -0.357602 z m 4.30261,0 v 0.357601 h 2.87114 v -0.357601 z m 4.30464,0 v 0.357601 h 2.86907 v -0.357601 z m 4.30464,0 v 0.357601 h 2.86908 v -0.357601 z m 4.30466,0 v 0.357601 h 2.86908 v -0.357601 z m 4.30309,0 v 0.357601 h 2.87115 v -0.357601 z m 4.30464,0 v 0.357601 h 2.86908 v -0.357601 z m 4.30466,0 v 0.357601 h 2.86908 v -0.357601 z m 4.30466,0 v 0.357601 h 2.86906 v -0.357601 z m 4.30257,0 v 0.253731 l -0.0739,-0.0739 v 2.765723 h 0.35709 v -2.765723 a 0.17935943,0.17935943 0 0 0 -0.17931,-0.179834 z m -0.0739,4.379061 v 2.871143 h 0.35709 v -2.871143 z m 0,4.304647 v 2.869076 h 0.35709 v -2.869076 z m 0,4.304647 v 2.869076 h 0.35709 v -2.869076 z m 0,4.304647 v 2.869075 h 0.35709 V 77.50968 Z m 0,4.30258 v 2.871142 h 0.35709 V 81.81226 Z m 0,4.304646 v 2.869593 h 0.35709 v -2.869593 z m 0,4.305164 v 2.869076 h 0.35709 V 90.42207 Z m 0,4.304647 v 2.869075 h 0.35709 v -2.869075 z m 0,4.30258 v 0.02945 h -2.4846 v 0.357084 h 2.66238 a 0.17935943,0.17935943 0 0 0 0.17931,-0.179317 v -0.207222 z m -38.84207,0.02274 v 0.184485 a 0.17935943,0.17935943 0 0 0 0.17985,0.179317 h 0.31057 v -0.357087 h -0.13281 v -0.0067 z m 1.92392,0.0067 v 0.357084 h 2.86908 v -0.357084 z m 4.30466,0 v 0.357084 h 2.86908 v -0.357084 z m 4.30464,0 v 0.357084 h 2.86908 v -0.357084 z m 4.30466,0 v 0.357084 h 2.86906 v -0.357084 z m 4.30258,0 v 0.357084 h 2.86959 v -0.357084 z m 4.30516,0 v 0.357084 h 2.86908 v -0.357084 z m 4.30465,0 v 0.357084 h 2.86907 v -0.357084 z m 4.30464,0 v 0.357084 h 2.86907 v -0.357084 z" /><path
       id="rect2-8"
       style="color:#000000;fill:#000000;fill-opacity:1;stroke-linejoin:round;stroke-dasharray:2.86946, 1.43473;-inkscape-stroke:none"
       d="m 58.28017,60.217004 v 0.179834 h -0.179834 v 0.183968 h 0.357601 v -0.0062 h 2.69131 v -0.357602 z m 4.302581,0 v 0.357601 h 2.871143 v -0.357601 z m 4.304647,0 v 0.357601 h 2.869076 v -0.357601 z m 4.304647,0 v 0.357601 h 2.869075 v -0.357601 z m 4.304647,0 v 0.357601 h 2.869075 v -0.357601 z m 4.303096,0 v 0.357601 h 2.871143 v -0.357601 z m 4.304647,0 v 0.357601 h 2.869076 v -0.357601 z m 4.304647,0 v 0.357601 h 2.869075 v -0.357601 z m 4.304647,0 v 0.357601 h 2.869075 v -0.357601 z m 4.302579,0 v 0.253732 l -0.0739,-0.0739 v 2.765723 h 0.357084 v -2.765724 a 0.17935943,0.17935943 0 0 0 -0.179317,-0.179834 z m -0.0739,4.379062 v 2.871143 h 0.357084 v -2.871143 z m 0,4.304647 v 2.869076 h 0.357084 v -2.869076 z m 0,4.304647 v 2.869076 h 0.357084 V 73.20536 Z m 0,4.304647 v 2.869075 h 0.357084 v -2.869075 z m 0,4.30258 v 2.871142 h 0.357084 v -2.871142 z m 0,4.304646 v 2.869593 h 0.357084 v -2.869593 z m 0,4.305164 v 2.869076 h 0.357084 v -2.869076 z m 0,4.304647 v 2.869075 h 0.357084 v -2.869075 z m 0,4.30258 v 0.02945 h -2.484603 v 0.357084 h 2.66237 a 0.17935943,0.17935943 0 0 0 0.179317,-0.179317 v -0.207222 z m -38.842075,0.02274 v 0.184485 a 0.17935943,0.17935943 0 0 0 0.179834,0.179317 h 0.310579 v -0.357087 h -0.132809 v -0.0067 z m 1.923915,0.0067 v 0.357084 h 2.869076 v -0.357084 z m 4.304647,0 v 0.357084 h 2.869075 v -0.357084 z m 4.304647,0 v 0.357084 h 2.869075 v -0.357084 z m 4.304647,0 v 0.357084 h 2.869075 v -0.357084 z m 4.302579,0 v 0.357084 h 2.869593 v -0.357084 z m 4.305164,0 v 0.357084 h 2.869075 v -0.357084 z m 4.304647,0 v 0.357084 h 2.869075 v -0.357084 z m 4.304647,0 v 0.357084 h 2.869075 v -0.357084 z" /><path
       id="rect2-8-7-5-9-4"
       style="color:#000000;fill:#000000;fill-opacity:1;stroke-linejoin:round;stroke-dasharray:2.86946, 1.43473;-inkscape-stroke:none"
       d="m 250.80505,60.216678 v 0.179834 h -0.17982 v 0.183968 h 0.3576 v -0.0062 h 2.69131 v -0.357602 z m 4.30261,0 v 0.357601 h 2.87115 v -0.357601 z m 4.30464,0 v 0.357601 h 2.86908 v -0.357601 z m 4.30464,0 v 0.357601 h 2.86908 v -0.357601 z m 4.30467,0 v 0.357601 h 2.86908 v -0.357601 z m 4.30309,0 v 0.357601 h 2.87115 v -0.357601 z m 4.30464,0 v 0.357601 h 2.8691 v -0.357601 z m 4.30467,0 v 0.357601 h 2.86908 v -0.357601 z m 4.30466,0 v 0.357601 h 2.86904 v -0.357601 z m 4.30255,0 v 0.253731 l -0.0739,-0.0739 v 2.765723 h 0.3571 v -2.765723 a 0.17935943,0.17935943 0 0 0 -0.17931,-0.179834 z m -0.0739,4.379061 v 2.871143 h 0.3571 v -2.871143 z m 0,4.304647 v 2.869076 h 0.3571 v -2.869076 z m 0,4.304647 v 2.869076 h 0.3571 v -2.869076 z m 0,4.304647 v 2.869075 h 0.3571 V 77.50968 Z m 0,4.30258 v 2.871142 h 0.3571 V 81.81226 Z m 0,4.304646 v 2.869593 h 0.3571 v -2.869593 z m 0,4.305164 v 2.869076 h 0.3571 V 90.42207 Z m 0,4.304647 v 2.869075 h 0.3571 v -2.869075 z m 0,4.30258 v 0.02945 h -2.4846 v 0.357084 h 2.66237 a 0.17935943,0.17935943 0 0 0 0.17931,-0.179317 v -0.207222 z m -38.84206,0.02274 v 0.184485 a 0.17935943,0.17935943 0 0 0 0.17984,0.179317 h 0.31057 v -0.357087 h -0.13281 v -0.0067 z m 1.9239,0.0067 v 0.357084 h 2.86908 v -0.357084 z m 4.30467,0 v 0.357084 h 2.86908 v -0.357084 z m 4.30464,0 v 0.357084 h 2.86908 v -0.357084 z m 4.30466,0 v 0.357084 h 2.86906 v -0.357084 z m 4.30259,0 v 0.357084 h 2.86958 v -0.357084 z m 4.30516,0 v 0.357084 h 2.86908 v -0.357084 z m 4.30465,0 v 0.357084 h 2.86907 v -0.357084 z m 4.30463,0 v 0.357084 h 2.86908 v -0.357084 z" /><path
       id="rect2-8-7-9"
       style="color:#000000;fill:#000000;fill-opacity:1;stroke-linejoin:round;stroke-dasharray:2.86946, 1.43473;-inkscape-stroke:none"
       d="m 107.98784,107.75034 v 0.17983 h -0.17983 v 0.18397 h 0.3576 v -0.006 h 2.69131 v -0.3576 z m 4.30258,0 v 0.3576 h 2.87115 v -0.3576 z m 4.30465,0 v 0.3576 h 2.86908 v -0.3576 z m 4.30465,0 v 0.3576 h 2.86907 v -0.3576 z m 4.30465,0 v 0.3576 h 2.86907 v -0.3576 z m 4.30309,0 v 0.3576 h 2.87115 v -0.3576 z m 4.30465,0 v 0.3576 h 2.86908 v -0.3576 z m 4.30465,0 v 0.3576 h 2.86909 v -0.3576 z m 4.30465,0 v 0.3576 h 2.86909 v -0.3576 z m 4.30259,0 v 0.25373 l -0.0739,-0.0739 v 2.76572 h 0.35709 v -2.76572 a 0.17935943,0.17935943 0 0 0 -0.17932,-0.17983 z m -0.0739,4.37906 v 2.87114 h 0.35709 v -2.87114 z m 0,4.30465 v 2.86907 h 0.35709 v -2.86907 z m 0,4.30465 v 2.86907 h 0.35709 v -2.86907 z m 0,4.30464 v 2.86908 h 0.35709 v -2.86908 z m 0,4.30258 v 2.87114 h 0.35709 v -2.87114 z m 0,4.30465 v 2.86959 h 0.35709 v -2.86959 z m 0,4.30516 v 2.86909 h 0.35709 v -2.86909 z m 0,4.30467 v 2.86909 h 0.35709 v -2.86909 z m 0,4.30261 v 0.0294 h -2.48461 v 0.35708 h 2.66238 a 0.17935943,0.17935943 0 0 0 0.17932,-0.17932 v -0.20722 z m -38.84209,0.0227 v 0.18448 a 0.17935943,0.17935943 0 0 0 0.17983,0.17932 h 0.31058 v -0.35709 h -0.13281 v -0.007 z m 1.92391,0.007 v 0.35708 h 2.86908 v -0.35708 z m 4.30465,0 v 0.35708 h 2.86907 v -0.35708 z m 4.30465,0 v 0.35708 h 2.86907 v -0.35708 z m 4.30464,0 v 0.35708 h 2.86908 v -0.35708 z m 4.30258,0 v 0.35708 h 2.86959 v -0.35708 z m 4.30517,0 v 0.35708 h 2.86907 v -0.35708 z m 4.30464,0 v 0.35708 h 2.86908 v -0.35708 z m 4.30466,0 v 0.35708 h 2.86907 v -0.35708 z" /><path
       id="rect2-8-7-5-1"
       style="color:#000000;fill:#000000;fill-opacity:1;stroke-linejoin:round;stroke-dasharray:2.86946, 1.43473;-inkscape-stroke:none"
       d="m 155.58949,107.75034 v 0.17983 h -0.17982 v 0.18397 h 0.3576 v -0.006 h 2.69131 v -0.3576 z m 4.3026,0 v 0.3576 h 2.87114 v -0.3576 z m 4.30464,0 v 0.3576 h 2.86907 v -0.3576 z m 4.30464,0 v 0.3576 h 2.86908 v -0.3576 z m 4.30466,0 v 0.3576 h 2.86908 v -0.3576 z m 4.30309,0 v 0.3576 h 2.87115 v -0.3576 z m 4.30464,0 v 0.3576 h 2.86908 v -0.3576 z m 4.30467,0 v 0.3576 h 2.86907 v -0.3576 z m 4.30464,0 v 0.3576 h 2.86907 v -0.3576 z m 4.30257,0 v 0.25373 l -0.0739,-0.0739 v 2.76572 h 0.35709 v -2.76572 a 0.17935943,0.17935943 0 0 0 -0.17932,-0.17983 z m -0.0739,4.37906 v 2.87114 h 0.35709 v -2.87114 z m 0,4.30465 v 2.86907 h 0.35709 v -2.86907 z m 0,4.30465 v 2.86907 h 0.35709 v -2.86907 z m 0,4.30464 v 2.86908 h 0.35709 v -2.86908 z m 0,4.30258 v 2.87114 h 0.35709 v -2.87114 z m 0,4.30465 v 2.86959 h 0.35709 v -2.86959 z m 0,4.30516 v 2.86909 h 0.35709 v -2.86909 z m 0,4.30467 v 2.86909 h 0.35709 v -2.86909 z m 0,4.30261 v 0.0294 h -2.4846 v 0.35708 h 2.66237 a 0.17935943,0.17935943 0 0 0 0.17932,-0.17932 v -0.20722 z m -38.84206,0.0227 v 0.18448 a 0.17935943,0.17935943 0 0 0 0.17983,0.17932 h 0.31058 v -0.35709 h -0.13281 v -0.007 z m 1.92391,0.007 v 0.35708 h 2.86908 v -0.35708 z m 4.30465,0 v 0.35708 h 2.86908 v -0.35708 z m 4.30464,0 v 0.35708 h 2.86907 v -0.35708 z m 4.30466,0 v 0.35708 h 2.86906 v -0.35708 z m 4.30258,0 v 0.35708 h 2.86959 v -0.35708 z m 4.30516,0 v 0.35708 h 2.86908 v -0.35708 z m 4.30465,0 v 0.35708 h 2.86907 v -0.35708 z m 4.30464,0 v 0.35708 h 2.86907 v -0.35708 z" /><path
       id="rect2-8-7-5-9-0"
       style="color:#000000;fill:#000000;fill-opacity:1;stroke-linejoin:round;stroke-dasharray:2.86946, 1.43473;-inkscape-stroke:none"
       d="m 203.1791,107.75034 v 0.17983 h -0.17982 v 0.18397 h 0.3576 v -0.006 h 2.69131 v -0.3576 z m 4.30261,0 v 0.3576 h 2.87114 v -0.3576 z m 4.30465,0 v 0.3576 h 2.86906 v -0.3576 z m 4.30464,0 v 0.3576 h 2.86908 v -0.3576 z m 4.30464,0 v 0.3576 h 2.86908 v -0.3576 z m 4.30311,0 v 0.3576 h 2.87113 v -0.3576 z m 4.30464,0 v 0.3576 h 2.86908 v -0.3576 z m 4.30466,0 v 0.3576 h 2.86907 v -0.3576 z m 4.30465,0 v 0.3576 h 2.86906 v -0.3576 z m 4.30257,0 v 0.25373 l -0.0739,-0.0739 v 2.76572 h 0.35709 v -2.76572 a 0.17935943,0.17935943 0 0 0 -0.17931,-0.17983 z m -0.0739,4.37906 v 2.87114 h 0.35709 v -2.87114 z m 0,4.30465 v 2.86907 h 0.35709 v -2.86907 z m 0,4.30465 v 2.86907 h 0.35709 v -2.86907 z m 0,4.30464 v 2.86908 h 0.35709 v -2.86908 z m 0,4.30258 v 2.87114 h 0.35709 v -2.87114 z m 0,4.30465 v 2.86959 h 0.35709 v -2.86959 z m 0,4.30516 v 2.86909 h 0.35709 v -2.86909 z m 0,4.30467 v 2.86909 h 0.35709 v -2.86909 z m 0,4.30261 v 0.0294 h -2.4846 v 0.35708 h 2.66238 a 0.17935943,0.17935943 0 0 0 0.17931,-0.17932 v -0.20722 z m -38.84206,0.0227 v 0.18448 a 0.17935943,0.17935943 0 0 0 0.17984,0.17932 h 0.31057 v -0.35709 h -0.13281 v -0.007 z m 1.92391,0.007 v 0.35708 h 2.86908 v -0.35708 z m 4.30466,0 v 0.35708 h 2.86908 v -0.35708 z m 4.30464,0 v 0.35708 h 2.86908 v -0.35708 z m 4.30466,0 v 0.35708 h 2.86906 v -0.35708 z m 4.30258,0 v 0.35708 h 2.86959 v -0.35708 z m 4.30516,0 v 0.35708 h 2.86908 v -0.35708 z m 4.30465,0 v 0.35708 h 2.86907 v -0.35708 z m 4.30464,0 v 0.35708 h 2.86907 v -0.35708 z" /><path
       id="rect2-8-4"
       style="color:#000000;fill:#000000;fill-opacity:1;stroke-linejoin:round;stroke-dasharray:2.86946, 1.43473;-inkscape-stroke:none"
       d="m 58.279844,107.75067 v 0.17983 H 58.10001 v 0.18397 h 0.357601 v -0.006 h 2.691309 v -0.3576 z m 4.30258,0 v 0.3576 h 2.871143 v -0.3576 z m 4.304647,0 v 0.3576 h 2.869076 v -0.3576 z m 4.304647,0 v 0.3576 h 2.869075 v -0.3576 z m 4.304647,0 v 0.3576 h 2.869075 v -0.3576 z m 4.303096,0 v 0.3576 h 2.871143 v -0.3576 z m 4.304647,0 v 0.3576 h 2.869076 v -0.3576 z m 4.304647,0 v 0.3576 h 2.869075 v -0.3576 z m 4.304647,0 v 0.3576 h 2.869075 v -0.3576 z m 4.302579,0 v 0.25373 l -0.0739,-0.0739 v 2.76572 h 0.357082 v -2.76572 a 0.17935943,0.17935943 0 0 0 -0.179315,-0.17984 z m -0.0739,4.37906 v 2.87114 h 0.357082 v -2.87114 z m 0,4.30464 v 2.86908 h 0.357082 v -2.86908 z m 0,4.30465 v 2.86908 h 0.357082 v -2.86908 z m 0,4.30465 v 2.86907 h 0.357082 v -2.86907 z m 0,4.30258 v 2.87114 h 0.357082 v -2.87114 z m 0,4.30465 v 2.86959 h 0.357082 v -2.86959 z m 0,4.30515 v 2.8691 h 0.357082 v -2.8691 z m 0,4.30468 v 2.86909 h 0.357082 v -2.86909 z m 0,4.3026 v 0.0294 h -2.484603 v 0.35709 h 2.66237 a 0.17935943,0.17935943 0 0 0 0.179315,-0.17932 v -0.20722 z m -38.842074,0.0227 v 0.18449 a 0.17935943,0.17935943 0 0 0 0.179834,0.17932 h 0.310578 v -0.35709 h -0.132808 v -0.007 z m 1.923914,0.007 v 0.35709 h 2.869076 v -0.35709 z m 4.304647,0 v 0.35709 h 2.869075 v -0.35709 z m 4.304647,0 v 0.35709 h 2.869075 v -0.35709 z m 4.304647,0 v 0.35709 h 2.869075 v -0.35709 z m 4.302579,0 v 0.35709 h 2.869593 v -0.35709 z m 4.305164,0 v 0.35709 h 2.869075 v -0.35709 z m 4.304647,0 v 0.35709 h 2.869075 v -0.35709 z m 4.304647,0 v 0.35709 h 2.869075 v -0.35709 z" /><path
       id="rect2-8-7-5-9-4-9"
       style="color:#000000;fill:#000000;fill-opacity:1;stroke-linejoin:round;stroke-dasharray:2.86946, 1.43473;-inkscape-stroke:none"
       d="m 250.80473,107.75034 v 0.17983 h -0.17983 v 0.18397 h 0.3576 v -0.006 h 2.69131 v -0.3576 z m 4.3026,0 v 0.3576 h 2.87115 v -0.3576 z m 4.30464,0 v 0.3576 h 2.86908 v -0.3576 z m 4.30464,0 v 0.3576 h 2.86908 v -0.3576 z m 4.30466,0 v 0.3576 h 2.86908 v -0.3576 z m 4.30311,0 v 0.3576 h 2.87113 v -0.3576 z m 4.30464,0 v 0.3576 h 2.86908 v -0.3576 z m 4.30467,0 v 0.3576 h 2.86908 v -0.3576 z m 4.30464,0 v 0.3576 h 2.86906 v -0.3576 z m 4.30257,0 v 0.25373 l -0.0739,-0.0739 v 2.76572 h 0.3571 v -2.76572 a 0.17935943,0.17935943 0 0 0 -0.1793,-0.17983 z m -0.0739,4.37906 v 2.87114 h 0.3571 v -2.87114 z m 0,4.30465 v 2.86907 h 0.3571 v -2.86907 z m 0,4.30465 v 2.86907 h 0.3571 v -2.86907 z m 0,4.30464 v 2.86908 h 0.3571 v -2.86908 z m 0,4.30258 v 2.87114 h 0.3571 v -2.87114 z m 0,4.30465 v 2.86959 h 0.3571 v -2.86959 z m 0,4.30516 v 2.86909 h 0.3571 v -2.86909 z m 0,4.30467 v 2.86909 h 0.3571 v -2.86909 z m 0,4.30261 v 0.0294 h -2.4846 v 0.35708 h 2.66237 a 0.17935943,0.17935943 0 0 0 0.17931,-0.17932 v -0.20722 z m -38.84206,0.0227 v 0.18448 a 0.17935943,0.17935943 0 0 0 0.17985,0.17932 h 0.31058 v -0.35709 h -0.13281 v -0.007 z m 1.92392,0.007 v 0.35708 h 2.86908 v -0.35708 z m 4.30467,0 v 0.35708 h 2.86907 v -0.35708 z m 4.30464,0 v 0.35708 h 2.86908 v -0.35708 z m 4.30466,0 v 0.35708 h 2.86906 v -0.35708 z m 4.30257,0 v 0.35708 h 2.8696 v -0.35708 z m 4.30517,0 v 0.35708 h 2.86907 v -0.35708 z m 4.30465,0 v 0.35708 h 2.86907 v -0.35708 z m 4.30463,0 v 0.35708 h 2.86908 v -0.35708 z" /><path
       id="rect2-8-7-9-0"
       style="color:#000000;fill:#000000;fill-opacity:1;stroke-linejoin:round;stroke-dasharray:2.86946, 1.43473;-inkscape-stroke:none"
       d="m 107.98784,155.475 v 0.17984 h -0.17983 v 0.18397 h 0.3576 v -0.006 h 2.69131 V 155.475 Z m 4.30258,0 v 0.3576 h 2.87115 v -0.3576 z m 4.30465,0 v 0.3576 h 2.86908 v -0.3576 z m 4.30465,0 v 0.3576 h 2.86907 v -0.3576 z m 4.30465,0 v 0.3576 h 2.86907 v -0.3576 z m 4.30309,0 v 0.3576 h 2.87115 v -0.3576 z m 4.30465,0 v 0.3576 h 2.86908 v -0.3576 z m 4.30465,0 v 0.3576 h 2.86909 v -0.3576 z m 4.30465,0 v 0.3576 h 2.86909 v -0.3576 z m 4.30259,0 v 0.25373 l -0.0739,-0.0739 v 2.76573 h 0.35709 v -2.76573 a 0.17935943,0.17935943 0 0 0 -0.17932,-0.17983 z m -0.0739,4.37907 v 2.87114 h 0.35709 v -2.87114 z m 0,4.30465 v 2.86907 h 0.35709 v -2.86907 z m 0,4.30464 v 2.86908 h 0.35709 v -2.86908 z m 0,4.30465 v 2.86908 h 0.35709 v -2.86908 z m 0,4.30259 v 2.87114 h 0.35709 v -2.87114 z m 0,4.30464 v 2.86959 h 0.35709 v -2.86959 z m 0,4.30517 v 2.86907 h 0.35709 v -2.86907 z m 0,4.30464 v 2.86908 h 0.35709 v -2.86908 z m 0,4.3026 v 0.0294 h -2.48461 v 0.35708 h 2.66238 a 0.17935943,0.17935943 0 0 0 0.17932,-0.17932 v -0.20722 z m -38.84209,0.0227 v 0.18448 a 0.17935943,0.17935943 0 0 0 0.17983,0.17932 h 0.31058 v -0.35709 h -0.13281 v -0.007 z m 1.92391,0.007 v 0.35708 h 2.86908 v -0.35708 z m 4.30465,0 v 0.35708 h 2.86907 v -0.35708 z m 4.30465,0 v 0.35708 h 2.86907 v -0.35708 z m 4.30464,0 v 0.35708 h 2.86908 v -0.35708 z m 4.30258,0 v 0.35708 h 2.86959 v -0.35708 z m 4.30517,0 v 0.35708 h 2.86907 v -0.35708 z m 4.30464,0 v 0.35708 h 2.86908 v -0.35708 z m 4.30466,0 v 0.35708 h 2.86907 v -0.35708 z" /><path
       id="rect2-8-7-5-1-9"
       style="color:#000000;fill:#000000;fill-opacity:1;stroke-linejoin:round;stroke-dasharray:2.86946, 1.43473;-inkscape-stroke:none"
       d="m 155.58949,155.475 v 0.17984 h -0.17982 v 0.18397 h 0.3576 v -0.006 h 2.69131 V 155.475 Z m 4.3026,0 v 0.3576 h 2.87114 v -0.3576 z m 4.30464,0 v 0.3576 h 2.86907 v -0.3576 z m 4.30464,0 v 0.3576 h 2.86908 v -0.3576 z m 4.30466,0 v 0.3576 h 2.86908 v -0.3576 z m 4.30309,0 v 0.3576 h 2.87115 v -0.3576 z m 4.30464,0 v 0.3576 h 2.86908 v -0.3576 z m 4.30467,0 v 0.3576 h 2.86907 v -0.3576 z m 4.30464,0 v 0.3576 h 2.86907 v -0.3576 z m 4.30257,0 v 0.25373 l -0.0739,-0.0739 v 2.76573 h 0.35709 v -2.76573 a 0.17935943,0.17935943 0 0 0 -0.17932,-0.17983 z m -0.0739,4.37907 v 2.87114 h 0.35709 v -2.87114 z m 0,4.30465 v 2.86907 h 0.35709 v -2.86907 z m 0,4.30464 v 2.86908 h 0.35709 v -2.86908 z m 0,4.30465 v 2.86908 h 0.35709 v -2.86908 z m 0,4.30259 v 2.87114 h 0.35709 v -2.87114 z m 0,4.30464 v 2.86959 h 0.35709 v -2.86959 z m 0,4.30517 v 2.86907 h 0.35709 v -2.86907 z m 0,4.30464 v 2.86908 h 0.35709 v -2.86908 z m 0,4.3026 v 0.0294 h -2.4846 v 0.35708 h 2.66237 a 0.17935943,0.17935943 0 0 0 0.17932,-0.17932 v -0.20722 z m -38.84206,0.0227 v 0.18448 a 0.17935943,0.17935943 0 0 0 0.17983,0.17932 h 0.31058 v -0.35709 h -0.13281 v -0.007 z m 1.92391,0.007 v 0.35708 h 2.86908 v -0.35708 z m 4.30465,0 v 0.35708 h 2.86908 v -0.35708 z m 4.30464,0 v 0.35708 h 2.86907 v -0.35708 z m 4.30466,0 v 0.35708 h 2.86906 v -0.35708 z m 4.30258,0 v 0.35708 h 2.86959 v -0.35708 z m 4.30516,0 v 0.35708 h 2.86908 v -0.35708 z m 4.30465,0 v 0.35708 h 2.86907 v -0.35708 z m 4.30464,0 v 0.35708 h 2.86907 v -0.35708 z" /><path
       id="rect2-8-7-5-9-0-8"
       style="color:#000000;fill:#000000;fill-opacity:1;stroke-linejoin:round;stroke-dasharray:2.86946, 1.43473;-inkscape-stroke:none"
       d="m 203.1791,155.475 v 0.17984 h -0.17982 v 0.18397 h 0.3576 v -0.006 h 2.69131 V 155.475 Z m 4.30261,0 v 0.3576 h 2.87114 v -0.3576 z m 4.30465,0 v 0.3576 h 2.86906 v -0.3576 z m 4.30464,0 v 0.3576 h 2.86908 v -0.3576 z m 4.30464,0 v 0.3576 h 2.86908 v -0.3576 z m 4.30311,0 v 0.3576 h 2.87113 v -0.3576 z m 4.30464,0 v 0.3576 h 2.86908 v -0.3576 z m 4.30466,0 v 0.3576 h 2.86907 v -0.3576 z m 4.30465,0 v 0.3576 h 2.86906 v -0.3576 z m 4.30257,0 v 0.25373 l -0.0739,-0.0739 v 2.76573 h 0.35709 v -2.76573 a 0.17935943,0.17935943 0 0 0 -0.17931,-0.17983 z m -0.0739,4.37907 v 2.87114 h 0.35709 v -2.87114 z m 0,4.30465 v 2.86907 h 0.35709 v -2.86907 z m 0,4.30464 v 2.86908 h 0.35709 v -2.86908 z m 0,4.30465 v 2.86908 h 0.35709 v -2.86908 z m 0,4.30259 v 2.87114 h 0.35709 v -2.87114 z m 0,4.30464 v 2.86959 h 0.35709 v -2.86959 z m 0,4.30517 v 2.86907 h 0.35709 v -2.86907 z m 0,4.30464 v 2.86908 h 0.35709 v -2.86908 z m 0,4.3026 v 0.0294 h -2.4846 v 0.35708 h 2.66238 a 0.17935943,0.17935943 0 0 0 0.17931,-0.17932 v -0.20722 z m -38.84206,0.0227 v 0.18448 a 0.17935943,0.17935943 0 0 0 0.17984,0.17932 h 0.31057 v -0.35709 h -0.13281 v -0.007 z m 1.92391,0.007 v 0.35708 h 2.86908 v -0.35708 z m 4.30466,0 v 0.35708 h 2.86908 v -0.35708 z m 4.30464,0 v 0.35708 h 2.86908 v -0.35708 z m 4.30466,0 v 0.35708 h 2.86906 v -0.35708 z m 4.30258,0 v 0.35708 h 2.86959 v -0.35708 z m 4.30516,0 v 0.35708 h 2.86908 v -0.35708 z m 4.30465,0 v 0.35708 h 2.86907 v -0.35708 z m 4.30464,0 v 0.35708 h 2.86907 v -0.35708 z" /><path
       id="rect2-8-4-0"
       style="color:#000000;fill:#000000;fill-opacity:1;stroke-linejoin:round;stroke-dasharray:2.86946, 1.43473;-inkscape-stroke:none"
       d="m 58.279844,155.47533 v 0.17983 H 58.10001 v 0.18397 h 0.357601 v -0.006 h 2.691309 v -0.3576 z m 4.30258,0 v 0.3576 h 2.871143 v -0.3576 z m 4.304647,0 v 0.3576 h 2.869076 v -0.3576 z m 4.304647,0 v 0.3576 h 2.869075 v -0.3576 z m 4.304647,0 v 0.3576 h 2.869075 v -0.3576 z m 4.303096,0 v 0.3576 h 2.871143 v -0.3576 z m 4.304647,0 v 0.3576 h 2.869076 v -0.3576 z m 4.304647,0 v 0.3576 h 2.869075 v -0.3576 z m 4.304647,0 v 0.3576 h 2.869075 v -0.3576 z m 4.302579,0 v 0.25373 l -0.0739,-0.0739 v 2.76572 h 0.357082 v -2.76572 a 0.17935943,0.17935943 0 0 0 -0.179315,-0.17983 z m -0.0739,4.37906 v 2.87115 h 0.357082 v -2.87115 z m 0,4.30465 v 2.86908 h 0.357082 v -2.86908 z m 0,4.30465 v 2.86908 h 0.357082 v -2.86908 z m 0,4.30465 v 2.86908 h 0.357082 v -2.86908 z m 0,4.30258 v 2.87115 h 0.357082 v -2.87115 z m 0,4.30465 v 2.86959 h 0.357082 v -2.86959 z m 0,4.30516 v 2.86908 h 0.357082 v -2.86908 z m 0,4.30465 v 2.86908 h 0.357082 v -2.86908 z m 0,4.30259 v 0.0294 h -2.484603 v 0.35709 h 2.66237 a 0.17935943,0.17935943 0 0 0 0.179315,-0.17932 v -0.20722 z m -38.842074,0.0227 v 0.18449 a 0.17935943,0.17935943 0 0 0 0.179834,0.17932 h 0.310578 v -0.35709 h -0.132808 v -0.007 z m 1.923914,0.007 v 0.35709 h 2.869076 v -0.35709 z m 4.304647,0 v 0.35709 h 2.869075 v -0.35709 z m 4.304647,0 v 0.35709 h 2.869075 v -0.35709 z m 4.304647,0 v 0.35709 h 2.869075 v -0.35709 z m 4.302579,0 v 0.35709 h 2.869593 v -0.35709 z m 4.305164,0 v 0.35709 h 2.869075 v -0.35709 z m 4.304647,0 v 0.35709 h 2.869075 v -0.35709 z m 4.304647,0 v 0.35709 h 2.869075 v -0.35709 z" /><path
       id="rect2-8-7-5-9-4-9-5"
       style="color:#000000;fill:#000000;fill-opacity:1;stroke-linejoin:round;stroke-dasharray:2.86946, 1.43473;-inkscape-stroke:none"
       d="m 250.80473,155.475 v 0.17984 h -0.17983 v 0.18397 h 0.3576 v -0.006 h 2.69131 V 155.475 Z m 4.3026,0 v 0.3576 h 2.87115 v -0.3576 z m 4.30464,0 v 0.3576 h 2.86908 v -0.3576 z m 4.30464,0 v 0.3576 h 2.86908 v -0.3576 z m 4.30466,0 v 0.3576 h 2.86908 v -0.3576 z m 4.30311,0 v 0.3576 h 2.87113 v -0.3576 z m 4.30464,0 v 0.3576 h 2.86908 v -0.3576 z m 4.30467,0 v 0.3576 h 2.86908 v -0.3576 z m 4.30464,0 v 0.3576 h 2.86906 v -0.3576 z m 4.30257,0 v 0.25373 l -0.0739,-0.0739 v 2.76573 h 0.3571 v -2.76573 a 0.17935943,0.17935943 0 0 0 -0.1793,-0.17983 z m -0.0739,4.37907 v 2.87114 h 0.3571 v -2.87114 z m 0,4.30465 v 2.86907 h 0.3571 v -2.86907 z m 0,4.30464 v 2.86908 h 0.3571 v -2.86908 z m 0,4.30465 v 2.86908 h 0.3571 v -2.86908 z m 0,4.30259 v 2.87114 h 0.3571 v -2.87114 z m 0,4.30464 v 2.86959 h 0.3571 v -2.86959 z m 0,4.30517 v 2.86907 h 0.3571 v -2.86907 z m 0,4.30464 v 2.86908 h 0.3571 v -2.86908 z m 0,4.3026 v 0.0294 h -2.4846 v 0.35708 h 2.66237 a 0.17935943,0.17935943 0 0 0 0.17931,-0.17932 v -0.20722 z m -38.84206,0.0227 v 0.18448 a 0.17935943,0.17935943 0 0 0 0.17985,0.17932 h 0.31058 v -0.35709 h -0.13281 v -0.007 z m 1.92392,0.007 v 0.35708 h 2.86908 v -0.35708 z m 4.30467,0 v 0.35708 h 2.86907 v -0.35708 z m 4.30464,0 v 0.35708 h 2.86908 v -0.35708 z m 4.30466,0 v 0.35708 h 2.86906 v -0.35708 z m 4.30257,0 v 0.35708 h 2.8696 v -0.35708 z m 4.30517,0 v 0.35708 h 2.86907 v -0.35708 z m 4.30465,0 v 0.35708 h 2.86907 v -0.35708 z m 4.30463,0 v 0.35708 h 2.86908 v -0.35708 z" /><path
       id="rect2-8-7-9-0-0"
       style="color:#000000;fill:#000000;fill-opacity:1;stroke-linejoin:round;stroke-dasharray:2.86946, 1.43473;-inkscape-stroke:none"
       d="m 107.98784,202.99962 v 0.17984 h -0.17983 v 0.18397 h 0.3576 v -0.006 h 2.69131 v -0.35781 z m 4.30258,0 v 0.3576 h 2.87115 v -0.3576 z m 4.30465,0 v 0.3576 h 2.86908 v -0.3576 z m 4.30465,0 v 0.3576 h 2.86907 v -0.3576 z m 4.30465,0 v 0.3576 h 2.86907 v -0.3576 z m 4.30309,0 v 0.3576 h 2.87115 v -0.3576 z m 4.30465,0 v 0.3576 h 2.86908 v -0.3576 z m 4.30465,0 v 0.3576 h 2.86909 v -0.3576 z m 4.30465,0 v 0.3576 h 2.86909 v -0.3576 z m 4.30259,0 v 0.25373 l -0.0739,-0.0739 v 2.76573 h 0.35709 v -2.76573 a 0.17935943,0.17935943 0 0 0 -0.17932,-0.17983 z m -0.0739,4.37907 v 2.87114 h 0.35709 v -2.87114 z m 0,4.30465 v 2.86907 h 0.35709 v -2.86907 z m 0,4.30464 v 2.86908 h 0.35709 v -2.86908 z m 0,4.30465 v 2.86908 h 0.35709 v -2.86908 z m 0,4.30259 v 2.87114 h 0.35709 v -2.87114 z m 0,4.30464 v 2.86959 h 0.35709 v -2.86959 z m 0,4.30517 v 2.86907 h 0.35709 v -2.86907 z m 0,4.30464 v 2.86908 h 0.35709 v -2.86908 z m 0,4.3026 v 0.0294 h -2.48461 v 0.35708 h 2.66238 a 0.17935943,0.17935943 0 0 0 0.17932,-0.17932 v -0.20722 z m -38.84209,0.0227 v 0.18448 a 0.17935943,0.17935943 0 0 0 0.17983,0.17932 h 0.31058 v -0.35709 h -0.13281 v -0.007 z m 1.92391,0.007 v 0.35708 h 2.86908 v -0.35708 z m 4.30465,0 v 0.35708 h 2.86907 v -0.35708 z m 4.30465,0 v 0.35708 h 2.86907 v -0.35708 z m 4.30464,0 v 0.35708 h 2.86908 v -0.35708 z m 4.30258,0 v 0.35708 h 2.86959 v -0.35708 z m 4.30517,0 v 0.35708 h 2.86907 v -0.35708 z m 4.30464,0 v 0.35708 h 2.86908 v -0.35708 z m 4.30466,0 v 0.35708 h 2.86907 v -0.35708 z" /><path
       id="rect2-8-7-5-1-9-7"
       style="color:#000000;fill:#000000;fill-opacity:1;stroke-linejoin:round;stroke-dasharray:2.86946, 1.43473;-inkscape-stroke:none"
       d="m 155.58949,202.99962 v 0.17984 h -0.17982 v 0.18397 h 0.3576 v -0.006 h 2.69131 v -0.35781 z m 4.3026,0 v 0.3576 h 2.87114 v -0.3576 z m 4.30464,0 v 0.3576 h 2.86907 v -0.3576 z m 4.30464,0 v 0.3576 h 2.86908 v -0.3576 z m 4.30466,0 v 0.3576 h 2.86908 v -0.3576 z m 4.30309,0 v 0.3576 h 2.87115 v -0.3576 z m 4.30464,0 v 0.3576 h 2.86908 v -0.3576 z m 4.30467,0 v 0.3576 h 2.86907 v -0.3576 z m 4.30464,0 v 0.3576 h 2.86907 v -0.3576 z m 4.30257,0 v 0.25373 l -0.0739,-0.0739 v 2.76573 h 0.35709 v -2.76573 a 0.17935943,0.17935943 0 0 0 -0.17932,-0.17983 z m -0.0739,4.37907 v 2.87114 h 0.35709 v -2.87114 z m 0,4.30465 v 2.86907 h 0.35709 v -2.86907 z m 0,4.30464 v 2.86908 h 0.35709 v -2.86908 z m 0,4.30465 v 2.86908 h 0.35709 v -2.86908 z m 0,4.30259 v 2.87114 h 0.35709 v -2.87114 z m 0,4.30464 v 2.86959 h 0.35709 v -2.86959 z m 0,4.30517 v 2.86907 h 0.35709 v -2.86907 z m 0,4.30464 v 2.86908 h 0.35709 v -2.86908 z m 0,4.3026 v 0.0294 h -2.4846 v 0.35708 h 2.66237 a 0.17935943,0.17935943 0 0 0 0.17932,-0.17932 v -0.20722 z m -38.84206,0.0227 v 0.18448 a 0.17935943,0.17935943 0 0 0 0.17983,0.17932 h 0.31058 v -0.35709 h -0.13281 v -0.007 z m 1.92391,0.007 v 0.35708 h 2.86908 v -0.35708 z m 4.30465,0 v 0.35708 h 2.86908 v -0.35708 z m 4.30464,0 v 0.35708 h 2.86907 v -0.35708 z m 4.30466,0 v 0.35708 h 2.86906 v -0.35708 z m 4.30258,0 v 0.35708 h 2.86959 v -0.35708 z m 4.30516,0 v 0.35708 h 2.86908 v -0.35708 z m 4.30465,0 v 0.35708 h 2.86907 v -0.35708 z m 4.30464,0 v 0.35708 h 2.86907 v -0.35708 z" /><path
       id="rect2-8-7-5-9-0-8-0"
       style="color:#000000;fill:#000000;fill-opacity:1;stroke-linejoin:round;stroke-dasharray:2.86946, 1.43473;-inkscape-stroke:none"
       d="m 203.1791,202.99962 v 0.17984 h -0.17982 v 0.18397 h 0.3576 v -0.006 h 2.69131 v -0.35781 z m 4.30261,0 v 0.3576 h 2.87114 v -0.3576 z m 4.30465,0 v 0.3576 h 2.86906 v -0.3576 z m 4.30464,0 v 0.3576 h 2.86908 v -0.3576 z m 4.30464,0 v 0.3576 h 2.86908 v -0.3576 z m 4.30311,0 v 0.3576 h 2.87113 v -0.3576 z m 4.30464,0 v 0.3576 h 2.86908 v -0.3576 z m 4.30466,0 v 0.3576 h 2.86907 v -0.3576 z m 4.30465,0 v 0.3576 h 2.86906 v -0.3576 z m 4.30257,0 v 0.25373 l -0.0739,-0.0739 v 2.76573 h 0.35709 v -2.76573 a 0.17935943,0.17935943 0 0 0 -0.17931,-0.17983 z m -0.0739,4.37907 v 2.87114 h 0.35709 v -2.87114 z m 0,4.30465 v 2.86907 h 0.35709 v -2.86907 z m 0,4.30464 v 2.86908 h 0.35709 v -2.86908 z m 0,4.30465 v 2.86908 h 0.35709 v -2.86908 z m 0,4.30259 v 2.87114 h 0.35709 v -2.87114 z m 0,4.30464 v 2.86959 h 0.35709 v -2.86959 z m 0,4.30517 v 2.86907 h 0.35709 v -2.86907 z m 0,4.30464 v 2.86908 h 0.35709 v -2.86908 z m 0,4.3026 v 0.0294 h -2.4846 v 0.35708 h 2.66238 a 0.17935943,0.17935943 0 0 0 0.17931,-0.17932 v -0.20722 z m -38.84206,0.0227 v 0.18448 a 0.17935943,0.17935943 0 0 0 0.17984,0.17932 h 0.31057 v -0.35709 h -0.13281 v -0.007 z m 1.92391,0.007 v 0.35708 h 2.86908 v -0.35708 z m 4.30466,0 v 0.35708 h 2.86908 v -0.35708 z m 4.30464,0 v 0.35708 h 2.86908 v -0.35708 z m 4.30466,0 v 0.35708 h 2.86906 v -0.35708 z m 4.30258,0 v 0.35708 h 2.86959 v -0.35708 z m 4.30516,0 v 0.35708 h 2.86908 v -0.35708 z m 4.30465,0 v 0.35708 h 2.86907 v -0.35708 z m 4.30464,0 v 0.35708 h 2.86907 v -0.35708 z" /><path
       id="rect2-8-4-0-7"
       style="color:#000000;fill:#000000;fill-opacity:1;stroke-linejoin:round;stroke-dasharray:2.86946, 1.43473;-inkscape-stroke:none"
       d="m 58.279844,202.99995 v 0.17983 H 58.10001 v 0.18397 h 0.357601 v -0.006 h 2.691309 v -0.3576 z m 4.30258,0 v 0.3576 h 2.871143 v -0.3576 z m 4.304647,0 v 0.3576 h 2.869076 v -0.3576 z m 4.304647,0 v 0.3576 h 2.869075 v -0.3576 z m 4.304647,0 v 0.3576 h 2.869075 v -0.3576 z m 4.303096,0 v 0.3576 h 2.871143 v -0.3576 z m 4.304647,0 v 0.3576 h 2.869076 v -0.3576 z m 4.304647,0 v 0.3576 h 2.869075 v -0.3576 z m 4.304647,0 v 0.3576 h 2.869075 v -0.3576 z m 4.302579,0 v 0.25373 l -0.0739,-0.0739 v 2.76572 h 0.357082 v -2.76572 a 0.17935943,0.17935943 0 0 0 -0.179315,-0.17983 z m -0.0739,4.37906 v 2.87115 h 0.357082 v -2.87115 z m 0,4.30465 v 2.86908 h 0.357082 v -2.86908 z m 0,4.30465 v 2.86908 h 0.357082 v -2.86908 z m 0,4.30465 v 2.86908 h 0.357082 v -2.86908 z m 0,4.30258 v 2.87115 h 0.357082 v -2.87115 z m 0,4.30465 v 2.86959 h 0.357082 v -2.86959 z m 0,4.30516 v 2.86908 h 0.357082 v -2.86908 z m 0,4.30465 v 2.86908 h 0.357082 V 237.51 Z m 0,4.30259 v 0.0294 h -2.484603 v 0.35709 h 2.66237 a 0.17935943,0.17935943 0 0 0 0.179315,-0.17932 v -0.20722 z m -38.842074,0.0227 v 0.18449 a 0.17935943,0.17935943 0 0 0 0.179834,0.17932 h 0.310578 v -0.35709 h -0.132808 v -0.007 z m 1.923914,0.007 v 0.35709 h 2.869076 v -0.35709 z m 4.304647,0 v 0.35709 h 2.869075 v -0.35709 z m 4.304647,0 v 0.35709 h 2.869075 v -0.35709 z m 4.304647,0 v 0.35709 h 2.869075 v -0.35709 z m 4.302579,0 v 0.35709 h 2.869593 v -0.35709 z m 4.305164,0 v 0.35709 h 2.869075 v -0.35709 z m 4.304647,0 v 0.35709 h 2.869075 v -0.35709 z m 4.304647,0 v 0.35709 h 2.869075 v -0.35709 z" /><path
       id="rect2-8-7-5-9-4-9-5-6"
       style="color:#000000;fill:#000000;fill-opacity:1;stroke-linejoin:round;stroke-dasharray:2.86946, 1.43473;-inkscape-stroke:none"
       d="m 250.80473,202.99962 v 0.17984 h -0.17983 v 0.18397 h 0.3576 v -0.006 h 2.69131 v -0.35781 z m 4.3026,0 v 0.3576 h 2.87115 v -0.3576 z m 4.30464,0 v 0.3576 h 2.86908 v -0.3576 z m 4.30464,0 v 0.3576 h 2.86908 v -0.3576 z m 4.30466,0 v 0.3576 h 2.86908 v -0.3576 z m 4.30311,0 v 0.3576 h 2.87113 v -0.3576 z m 4.30464,0 v 0.3576 h 2.86908 v -0.3576 z m 4.30467,0 v 0.3576 h 2.86908 v -0.3576 z m 4.30464,0 v 0.3576 h 2.86906 v -0.3576 z m 4.30257,0 v 0.25373 l -0.0739,-0.0739 v 2.76573 h 0.3571 v -2.76573 a 0.17935943,0.17935943 0 0 0 -0.1793,-0.17983 z m -0.0739,4.37907 v 2.87114 h 0.3571 v -2.87114 z m 0,4.30465 v 2.86907 h 0.3571 v -2.86907 z m 0,4.30464 v 2.86908 h 0.3571 v -2.86908 z m 0,4.30465 v 2.86908 h 0.3571 v -2.86908 z m 0,4.30259 v 2.87114 h 0.3571 v -2.87114 z m 0,4.30464 v 2.86959 h 0.3571 v -2.86959 z m 0,4.30517 v 2.86907 h 0.3571 v -2.86907 z m 0,4.30464 v 2.86908 h 0.3571 v -2.86908 z m 0,4.3026 v 0.0294 h -2.4846 v 0.35708 h 2.66237 a 0.17935943,0.17935943 0 0 0 0.17931,-0.17932 v -0.20722 z m -38.84206,0.0227 v 0.18448 a 0.17935943,0.17935943 0 0 0 0.17985,0.17932 h 0.31058 v -0.35709 h -0.13281 v -0.007 z m 1.92392,0.007 v 0.35708 h 2.86908 v -0.35708 z m 4.30467,0 v 0.35708 h 2.86907 v -0.35708 z m 4.30464,0 v 0.35708 h 2.86908 v -0.35708 z m 4.30466,0 v 0.35708 h 2.86906 v -0.35708 z m 4.30257,0 v 0.35708 h 2.8696 v -0.35708 z m 4.30517,0 v 0.35708 h 2.86907 v -0.35708 z m 4.30465,0 v 0.35708 h 2.86907 v -0.35708 z m 4.30463,0 v 0.35708 h 2.86908 v -0.35708 z" /><path
       id="rect2-8-7-9-0-0-0"
       style="color:#000000;fill:#000000;fill-opacity:1;stroke-linejoin:round;stroke-dasharray:2.86946, 1.43473;-inkscape-stroke:none"
       d="m 107.98785,251.61871 v 0.17984 h -0.17983 v 0.18397 h 0.3576 v -0.006 h 2.69131 v -0.35781 z m 4.30258,0 v 0.3576 h 2.87115 v -0.3576 z m 4.30465,0 v 0.3576 h 2.86908 v -0.3576 z m 4.30465,0 v 0.3576 h 2.86907 v -0.3576 z m 4.30465,0 v 0.3576 h 2.86907 v -0.3576 z m 4.30309,0 v 0.3576 h 2.87115 v -0.3576 z m 4.30465,0 v 0.3576 h 2.86908 v -0.3576 z m 4.30465,0 v 0.3576 h 2.86908 v -0.3576 z m 4.30465,0 v 0.3576 h 2.86908 v -0.3576 z m 4.30258,0 v 0.25373 l -0.0739,-0.0739 v 2.76573 h 0.35709 v -2.76573 a 0.17935943,0.17935943 0 0 0 -0.17932,-0.17983 z m -0.0739,4.37907 v 2.87114 h 0.35709 v -2.87114 z m 0,4.30465 v 2.86907 h 0.35709 v -2.86907 z m 0,4.30464 v 2.86908 h 0.35709 v -2.86908 z m 0,4.30465 v 2.86908 h 0.35709 v -2.86908 z m 0,4.30259 v 2.87114 h 0.35709 v -2.87114 z m 0,4.30464 v 2.86959 h 0.35709 v -2.86959 z m 0,4.30517 v 2.86907 h 0.35709 v -2.86907 z m 0,4.30464 v 2.86908 h 0.35709 v -2.86908 z m 0,4.3026 v 0.0294 h -2.4846 v 0.35708 h 2.66237 a 0.17935943,0.17935943 0 0 0 0.17932,-0.17932 v -0.20722 z m -38.84208,0.0227 v 0.18448 a 0.17935943,0.17935943 0 0 0 0.17983,0.17932 h 0.31058 v -0.35709 h -0.13281 v -0.007 z m 1.92391,0.007 v 0.35708 h 2.86908 v -0.35708 z m 4.30465,0 v 0.35708 h 2.86907 v -0.35708 z m 4.30465,0 v 0.35708 h 2.86907 v -0.35708 z m 4.30464,0 v 0.35708 h 2.86908 v -0.35708 z m 4.30258,0 v 0.35708 h 2.86959 v -0.35708 z m 4.30517,0 v 0.35708 h 2.86907 v -0.35708 z m 4.30464,0 v 0.35708 h 2.86908 v -0.35708 z m 4.30466,0 v 0.35708 h 2.86907 v -0.35708 z" /><path
       id="rect2-8-7-5-1-9-7-3"
       style="color:#000000;fill:#000000;fill-opacity:1;stroke-linejoin:round;stroke-dasharray:2.86946, 1.43473;-inkscape-stroke:none"
       d="m 155.58949,251.61871 v 0.17984 h -0.17982 v 0.18397 h 0.3576 v -0.006 h 2.69131 v -0.35781 z m 4.3026,0 v 0.3576 h 2.87114 v -0.3576 z m 4.30464,0 v 0.3576 h 2.86907 v -0.3576 z m 4.30464,0 v 0.3576 h 2.86908 v -0.3576 z m 4.30466,0 v 0.3576 h 2.86908 v -0.3576 z m 4.30309,0 v 0.3576 h 2.87115 v -0.3576 z m 4.30464,0 v 0.3576 h 2.86908 v -0.3576 z m 4.30467,0 v 0.3576 h 2.86907 v -0.3576 z m 4.30464,0 v 0.3576 h 2.86907 v -0.3576 z m 4.30257,0 v 0.25373 l -0.0739,-0.0739 v 2.76573 h 0.35709 v -2.76573 a 0.17935943,0.17935943 0 0 0 -0.17932,-0.17983 z m -0.0739,4.37907 v 2.87114 h 0.35709 v -2.87114 z m 0,4.30465 v 2.86907 h 0.35709 v -2.86907 z m 0,4.30464 v 2.86908 h 0.35709 v -2.86908 z m 0,4.30465 v 2.86908 h 0.35709 v -2.86908 z m 0,4.30259 v 2.87114 h 0.35709 v -2.87114 z m 0,4.30464 v 2.86959 h 0.35709 v -2.86959 z m 0,4.30517 v 2.86907 h 0.35709 v -2.86907 z m 0,4.30464 v 2.86908 h 0.35709 v -2.86908 z m 0,4.3026 v 0.0294 h -2.4846 v 0.35708 h 2.66237 a 0.17935943,0.17935943 0 0 0 0.17932,-0.17932 v -0.20722 z m -38.84206,0.0227 v 0.18448 a 0.17935943,0.17935943 0 0 0 0.17983,0.17932 h 0.31058 v -0.35709 h -0.13281 v -0.007 z m 1.92391,0.007 v 0.35708 h 2.86908 v -0.35708 z m 4.30465,0 v 0.35708 h 2.86908 v -0.35708 z m 4.30464,0 v 0.35708 h 2.86907 v -0.35708 z m 4.30466,0 v 0.35708 h 2.86906 v -0.35708 z m 4.30258,0 v 0.35708 h 2.86959 v -0.35708 z m 4.30516,0 v 0.35708 h 2.86908 v -0.35708 z m 4.30465,0 v 0.35708 h 2.86907 v -0.35708 z m 4.30464,0 v 0.35708 h 2.86907 v -0.35708 z" /><path
       id="rect2-8-7-5-9-0-8-0-7"
       style="color:#000000;fill:#000000;fill-opacity:1;stroke-linejoin:round;stroke-dasharray:2.86946, 1.43473;-inkscape-stroke:none"
       d="m 203.1791,251.61871 v 0.17984 h -0.17982 v 0.18397 h 0.3576 v -0.006 h 2.69131 v -0.35781 z m 4.30261,0 v 0.3576 h 2.87114 v -0.3576 z m 4.30465,0 v 0.3576 h 2.86906 v -0.3576 z m 4.30464,0 v 0.3576 h 2.86908 v -0.3576 z m 4.30464,0 v 0.3576 h 2.86908 v -0.3576 z m 4.30311,0 v 0.3576 h 2.87113 v -0.3576 z m 4.30464,0 v 0.3576 h 2.86908 v -0.3576 z m 4.30466,0 v 0.3576 h 2.86907 v -0.3576 z m 4.30465,0 v 0.3576 h 2.86906 v -0.3576 z m 4.30257,0 v 0.25373 l -0.0739,-0.0739 v 2.76573 h 0.35709 v -2.76573 a 0.17935943,0.17935943 0 0 0 -0.17931,-0.17983 z m -0.0739,4.37907 v 2.87114 h 0.35709 v -2.87114 z m 0,4.30465 v 2.86907 h 0.35709 v -2.86907 z m 0,4.30464 v 2.86908 h 0.35709 v -2.86908 z m 0,4.30465 v 2.86908 h 0.35709 v -2.86908 z m 0,4.30259 v 2.87114 h 0.35709 v -2.87114 z m 0,4.30464 v 2.86959 h 0.35709 v -2.86959 z m 0,4.30517 v 2.86907 h 0.35709 v -2.86907 z m 0,4.30464 v 2.86908 h 0.35709 v -2.86908 z m 0,4.3026 v 0.0294 h -2.4846 v 0.35708 h 2.66238 a 0.17935943,0.17935943 0 0 0 0.17931,-0.17932 v -0.20722 z m -38.84206,0.0227 v 0.18448 a 0.17935943,0.17935943 0 0 0 0.17984,0.17932 h 0.31057 v -0.35709 h -0.13281 v -0.007 z m 1.92391,0.007 v 0.35708 h 2.86908 v -0.35708 z m 4.30466,0 v 0.35708 h 2.86908 v -0.35708 z m 4.30464,0 v 0.35708 h 2.86908 v -0.35708 z m 4.30466,0 v 0.35708 h 2.86906 v -0.35708 z m 4.30258,0 v 0.35708 h 2.86959 v -0.35708 z m 4.30516,0 v 0.35708 h 2.86908 v -0.35708 z m 4.30466,0 v 0.35708 h 2.86906 v -0.35708 z m 4.30464,0 v 0.35708 h 2.86906 v -0.35708 z" /><path
       id="rect2-8-4-0-7-4"
       style="color:#000000;fill:#000000;fill-opacity:1;stroke-linejoin:round;stroke-dasharray:2.86946, 1.43473;-inkscape-stroke:none"
       d="m 58.279847,251.61904 v 0.17983 h -0.17983 v 0.18397 h 0.3576 v -0.006 h 2.691311 v -0.3576 z m 4.302581,0 v 0.3576 h 2.871144 v -0.3576 z m 4.304648,0 v 0.3576 h 2.869076 v -0.3576 z m 4.304647,0 v 0.3576 h 2.869075 v -0.3576 z m 4.304647,0 v 0.3576 h 2.869075 v -0.3576 z m 4.303096,0 v 0.3576 h 2.871143 v -0.3576 z m 4.304647,0 v 0.3576 h 2.869076 v -0.3576 z m 4.304647,0 v 0.3576 h 2.869075 v -0.3576 z m 4.304647,0 v 0.3576 h 2.869075 v -0.3576 z m 4.302579,0 v 0.25373 l -0.0739,-0.0739 v 2.76572 h 0.357082 v -2.76572 a 0.17935943,0.17935943 0 0 0 -0.179315,-0.17983 z m -0.0739,4.37906 v 2.87115 h 0.357082 v -2.87115 z m 0,4.30465 v 2.86908 h 0.357082 v -2.86908 z m 0,4.30465 v 2.86908 h 0.357082 v -2.86908 z m 0,4.30465 v 2.86908 h 0.357082 v -2.86908 z m 0,4.30258 v 2.87115 h 0.357082 v -2.87115 z m 0,4.30465 v 2.86959 h 0.357082 v -2.86959 z m 0,4.30516 v 2.86908 h 0.357082 v -2.86908 z m 0,4.30465 v 2.86908 h 0.357082 v -2.86908 z m 0,4.30259 v 0.0294 h -2.484603 v 0.35709 h 2.66237 a 0.17935943,0.17935943 0 0 0 0.179315,-0.17932 v -0.20722 z m -38.842079,0.0227 v 0.18449 a 0.17935943,0.17935943 0 0 0 0.17984,0.17932 h 0.31058 v -0.35709 h -0.13281 v -0.007 z m 1.923921,0.007 v 0.35709 h 2.86907 v -0.35709 z m 4.30465,0 v 0.35709 h 2.86907 v -0.35709 z m 4.304642,0 v 0.35709 h 2.869075 v -0.35709 z m 4.304647,0 v 0.35709 h 2.869075 v -0.35709 z m 4.302579,0 v 0.35709 h 2.869593 v -0.35709 z m 4.305164,0 v 0.35709 h 2.869075 v -0.35709 z m 4.304647,0 v 0.35709 h 2.869075 v -0.35709 z m 4.304647,0 v 0.35709 h 2.869075 v -0.35709 z" /><path
       id="rect2-8-7-5-9-4-9-5-6-3"
       style="color:#000000;fill:#000000;fill-opacity:1;stroke-linejoin:round;stroke-dasharray:2.86946, 1.43473;-inkscape-stroke:none"
       d="m 250.80473,251.61871 v 0.17984 h -0.17983 v 0.18397 h 0.3576 v -0.006 h 2.69131 v -0.35781 z m 4.3026,0 v 0.3576 h 2.87115 v -0.3576 z m 4.30464,0 v 0.3576 h 2.86908 v -0.3576 z m 4.30464,0 v 0.3576 h 2.86908 v -0.3576 z m 4.30467,0 v 0.3576 h 2.86908 v -0.3576 z m 4.30309,0 v 0.3576 h 2.87115 v -0.3576 z m 4.30464,0 v 0.3576 h 2.8691 v -0.3576 z m 4.30467,0 v 0.3576 h 2.86908 v -0.3576 z m 4.30466,0 v 0.3576 h 2.86905 v -0.3576 z m 4.30255,0 v 0.25373 l -0.0739,-0.0739 v 2.76573 h 0.3571 v -2.76573 a 0.17935943,0.17935943 0 0 0 -0.1793,-0.17983 z m -0.0739,4.37907 v 2.87114 h 0.3571 v -2.87114 z m 0,4.30465 v 2.86907 h 0.3571 v -2.86907 z m 0,4.30464 v 2.86908 h 0.3571 v -2.86908 z m 0,4.30465 v 2.86908 h 0.3571 v -2.86908 z m 0,4.30259 v 2.87114 h 0.3571 v -2.87114 z m 0,4.30464 v 2.86959 h 0.3571 v -2.86959 z m 0,4.30517 v 2.86907 h 0.3571 v -2.86907 z m 0,4.30464 v 2.86908 h 0.3571 v -2.86908 z m 0,4.3026 v 0.0294 h -2.4846 v 0.35708 h 2.66237 a 0.17935943,0.17935943 0 0 0 0.17931,-0.17932 v -0.20722 z m -38.84206,0.0227 v 0.18448 a 0.17935943,0.17935943 0 0 0 0.17984,0.17932 h 0.31057 v -0.35709 h -0.13281 v -0.007 z m 1.9239,0.007 v 0.35708 h 2.86908 v -0.35708 z m 4.30467,0 v 0.35708 h 2.86908 v -0.35708 z m 4.30465,0 v 0.35708 h 2.86907 v -0.35708 z m 4.30465,0 v 0.35708 h 2.86906 v -0.35708 z m 4.30259,0 v 0.35708 h 2.86958 v -0.35708 z m 4.30517,0 v 0.35708 h 2.86907 v -0.35708 z m 4.30464,0 v 0.35708 h 2.86908 v -0.35708 z m 4.30464,0 v 0.35708 h 2.86908 v -0.35708 z" /><text
       xml:space="preserve"
       style="font-style:normal;font-weight:normal;font-size:20px;line-height:1.25;font-family:sans-serif;fill:#000000;fill-opacity:1;stroke:none;stroke-width:0.264583"
       x="169.00925"
       y="182.07472"
       id="text1"><tspan
         sodipodi:role="line"
         id="tspan1"
         style="font-style:normal;font-variant:normal;font-weight:bold;font-stretch:normal;font-size:20px;font-family:'PT Mono';-inkscape-font-specification:'PT Mono Bold';stroke-width:0.264583"
         x="169.00925"
         y="182.07472">6</tspan></text><text
       xml:space="preserve"
       style="font-style:normal;font-weight:normal;font-size:20px;line-height:1.25;font-family:sans-serif;fill:#000000;fill-opacity:1;stroke:none;stroke-width:0.264583"
       x="115.36761"
       y="182.07472"
       id="text1-9"><tspan
         sodipodi:role="line"
         id="tspan1-2"
         style="font-style:normal;font-variant:normal;font-weight:bold;font-stretch:normal;font-size:20px;font-family:'PT Mono';-inkscape-font-specification:'PT Mono Bold';stroke-width:0.264583"
         x="115.36761"
         y="182.07472">23</tspan></text><text
       xml:space="preserve"
       style="font-style:normal;font-weight:normal;font-size:20px;line-height:1.25;font-family:sans-serif;fill:#000000;fill-opacity:1;stroke:none;stroke-width:0.264583"
       x="216.59888"
       y="182.07472"
       id="text1-91"><tspan
         sodipodi:role="line"
         id="tspan1-0"
         style="font-style:normal;font-variant:normal;font-weight:bold;font-stretch:normal;font-size:20px;font-family:'PT Mono';-inkscape-font-specification:'PT Mono Bold';stroke-width:0.264583"
         x="216.59888"
         y="182.07472">9</tspan></text><text
       xml:space="preserve"
       style="font-style:normal;font-weight:normal;font-size:20px;line-height:1.25;font-family:sans-serif;fill:#000000;fill-opacity:1;stroke:none;stroke-width:0.264583"
       x="258.15451"
       y="182.07472"
       id="text1-91-0"><tspan
         sodipodi:role="line"
         id="tspan1-0-3"
         style="font-style:normal;font-variant:normal;font-weight:bold;font-stretch:normal;font-size:20px;font-family:'PT Mono';-inkscape-font-specification:'PT Mono Bold';stroke-width:0.264583"
         x="258.15451"
         y="182.07472">18</tspan></text><text
       xml:space="preserve"
       style="font-style:normal;font-weight:normal;font-size:20px;line-height:1.25;font-family:sans-serif;fill:#000000;fill-opacity:1;stroke:none;stroke-width:0.264583"
       x="65.309601"
       y="182.07504"
       id="text1-91-0-8"><tspan
         sodipodi:role="line"
         id="tspan1-0-3-6"
         style="font-style:normal;font-variant:normal;font-weight:bold;font-stretch:normal;font-size:20px;font-family:'PT Mono';-inkscape-font-specification:'PT Mono Bold';stroke-width:0.264583"
         x="65.309601"
         y="182.07504">20</tspan></text><text
       xml:space="preserve"
       style="font-style:normal;font-weight:normal;font-size:20px;line-height:1.25;font-family:sans-serif;fill:#000000;fill-opacity:1;stroke:none;stroke-width:0.264583"
       x="162.90927"
       y="134.49007"
       id="text1-6"><tspan
         sodipodi:role="line"
         id="tspan1-4"
         style="font-style:normal;font-variant:normal;font-weight:bold;font-stretch:normal;font-size:20px;font-family:'PT Mono';-inkscape-font-specification:'PT Mono Bold';stroke-width:0.264583"
         x="162.90927"
         y="134.49007">21</tspan></text><text
       xml:space="preserve"
       style="font-style:normal;font-weight:normal;font-size:20px;line-height:1.25;font-family:sans-serif;fill:#000000;fill-opacity:1;stroke:none;stroke-width:0.264583"
       x="121.5276"
       y="134.21007"
       id="text1-9-4"><tspan
         sodipodi:role="line"
         id="tspan1-2-8"
         style="font-style:normal;font-variant:normal;font-weight:bold;font-stretch:normal;font-size:20px;font-family:'PT Mono';-inkscape-font-specification:'PT Mono Bold';stroke-width:0.264583"
         x="121.5276"
         y="134.21007">5</tspan></text><text
       xml:space="preserve"
       style="font-style:normal;font-weight:normal;font-size:20px;line-height:1.25;font-family:sans-serif;fill:#000000;fill-opacity:1;stroke:none;stroke-width:0.264583"
       x="258.32452"
       y="134.49007"
       id="text1-91-0-4"><tspan
         sodipodi:role="line"
         id="tspan1-0-3-0"
         style="font-style:normal;font-variant:normal;font-weight:bold;font-stretch:normal;font-size:20px;font-family:'PT Mono';-inkscape-font-specification:'PT Mono Bold';stroke-width:0.264583"
         x="258.32452"
         y="134.49007">12</tspan></text><text
       xml:space="preserve"
       style="font-style:normal;font-weight:normal;font-size:20px;line-height:1.25;font-family:sans-serif;fill:#000000;fill-opacity:1;stroke:none;stroke-width:0.264583"
       x="65.259598"
       y="134.40039"
       id="text1-91-0-8-8"><tspan
         sodipodi:role="line"
         id="tspan1-0-3-6-1"
         style="font-style:normal;font-variant:normal;font-weight:bold;font-stretch:normal;font-size:20px;font-family:'PT Mono';-inkscape-font-specification:'PT Mono Bold';stroke-width:0.264583"
         x="65.259598"
         y="134.40039">14</tspan></text><text
       xml:space="preserve"
       style="font-style:normal;font-weight:normal;font-size:20px;line-height:1.25;font-family:sans-serif;fill:#000000;fill-opacity:1;stroke:none;stroke-width:0.264583"
       x="163.0696"
       y="86.676254"
       id="text1-6-1"><tspan
         sodipodi:role="line"
         id="tspan1-4-5"
         style="font-style:normal;font-variant:normal;font-weight:bold;font-stretch:normal;font-size:20px;font-family:'PT Mono';-inkscape-font-specification:'PT Mono Bold';stroke-width:0.264583"
         x="163.0696"
         y="86.676254">13</tspan></text><text
       xml:space="preserve"
       style="font-style:normal;font-weight:normal;font-size:20px;line-height:1.25;font-family:sans-serif;fill:#000000;fill-opacity:1;stroke:none;stroke-width:0.264583"
       x="121.40794"
       y="86.956261"
       id="text1-9-4-0"><tspan
         sodipodi:role="line"
         id="tspan1-2-8-8"
         style="font-style:normal;font-variant:normal;font-weight:bold;font-stretch:normal;font-size:20px;font-family:'PT Mono';-inkscape-font-specification:'PT Mono Bold';stroke-width:0.264583"
         x="121.40794"
         y="86.956261">2</tspan></text><text
       xml:space="preserve"
       style="font-style:normal;font-weight:normal;font-size:20px;line-height:1.25;font-family:sans-serif;fill:#000000;fill-opacity:1;stroke:none;stroke-width:0.264583"
       x="210.46922"
       y="86.816254"
       id="text1-91-6-4"><tspan
         sodipodi:role="line"
         id="tspan1-0-1-9"
         style="font-style:normal;font-variant:normal;font-weight:bold;font-stretch:normal;font-size:20px;font-family:'PT Mono';-inkscape-font-specification:'PT Mono Bold';stroke-width:0.264583"
         x="210.46922"
         y="86.816254">16</tspan></text><text
       xml:space="preserve"
       style="font-style:normal;font-weight:normal;font-size:20px;line-height:1.25;font-family:sans-serif;fill:#000000;fill-opacity:1;stroke:none;stroke-width:0.264583"
       x="264.38483"
       y="86.816254"
       id="text1-91-0-4-3"><tspan
         sodipodi:role="line"
         id="tspan1-0-3-0-0"
         style="font-style:normal;font-variant:normal;font-weight:bold;font-stretch:normal;font-size:20px;font-family:'PT Mono';-inkscape-font-specification:'PT Mono Bold';stroke-width:0.264583"
         x="264.38483"
         y="86.816254">7</tspan></text><text
       xml:space="preserve"
       style="font-style:normal;font-weight:normal;font-size:20px;line-height:1.25;font-family:sans-serif;fill:#000000;fill-opacity:1;stroke:none;stroke-width:0.264583"
       x="71.699913"
       y="86.816582"
       id="text1-91-0-8-8-5"><tspan
         sodipodi:role="line"
         id="tspan1-0-3-6-1-2"
         style="font-style:normal;font-variant:normal;font-weight:bold;font-stretch:normal;font-size:20px;font-family:'PT Mono';-inkscape-font-specification:'PT Mono Bold';stroke-width:0.264583"
         x="71.699913"
         y="86.816582">8</tspan></text><text
       xml:space="preserve"
       style="font-style:normal;font-weight:normal;font-size:20px;line-height:1.25;font-family:sans-serif;fill:#000000;fill-opacity:1;stroke:none;stroke-width:0.264583"
       x="169.00925"
       y="229.59933"
       id="text1-6-1-8"><tspan
         sodipodi:role="line"
         id="tspan1-4-5-0"
         style="font-style:normal;font-variant:normal;font-weight:bold;font-stretch:normal;font-size:20px;font-family:'PT Mono';-inkscape-font-specification:'PT Mono Bold';stroke-width:0.264583"
         x="169.00925"
         y="229.59933">1</tspan></text><text
       xml:space="preserve"
       style="font-style:normal;font-weight:normal;font-size:20px;line-height:1.25;font-family:sans-serif;fill:#000000;fill-opacity:1;stroke:none;stroke-width:0.264583"
       x="115.40762"
       y="229.59933"
       id="text1-9-4-0-4"><tspan
         sodipodi:role="line"
         id="tspan1-2-8-8-5"
         style="font-style:normal;font-variant:normal;font-weight:bold;font-stretch:normal;font-size:20px;font-family:'PT Mono';-inkscape-font-specification:'PT Mono Bold';stroke-width:0.264583"
         x="115.40762"
         y="229.59933">11</tspan></text><text
       xml:space="preserve"
       style="font-style:normal;font-weight:normal;font-size:20px;line-height:1.25;font-family:sans-serif;fill:#000000;fill-opacity:1;stroke:none;stroke-width:0.264583"
       x="216.59888"
       y="229.45934"
       id="text1-91-6-4-7"><tspan
         sodipodi:role="line"
         id="tspan1-0-1-9-1"
         style="font-style:normal;font-variant:normal;font-weight:bold;font-stretch:normal;font-size:20px;font-family:'PT Mono';-inkscape-font-specification:'PT Mono Bold';stroke-width:0.264583"
         x="216.59888"
         y="229.45934">3</tspan></text><text
       xml:space="preserve"
       style="font-style:normal;font-weight:normal;font-size:20px;line-height:1.25;font-family:sans-serif;fill:#000000;fill-opacity:1;stroke:none;stroke-width:0.264583"
       x="257.68451"
       y="229.73933"
       id="text1-91-0-4-3-0"><tspan
         sodipodi:role="line"
         id="tspan1-0-3-0-0-6"
         style="font-style:normal;font-variant:normal;font-weight:bold;font-stretch:normal;font-size:20px;font-family:'PT Mono';-inkscape-font-specification:'PT Mono Bold';stroke-width:0.264583"
         x="257.68451"
         y="229.73933">24</tspan></text><text
       xml:space="preserve"
       style="font-style:normal;font-weight:normal;font-size:20px;line-height:1.25;font-family:sans-serif;fill:#000000;fill-opacity:1;stroke:none;stroke-width:0.264583"
       x="65.829597"
       y="229.45967"
       id="text1-91-0-8-8-5-0"><tspan
         sodipodi:role="line"
         id="tspan1-0-3-6-1-2-3"
         style="font-style:normal;font-variant:normal;font-weight:bold;font-stretch:normal;font-size:20px;font-family:'PT Mono';-inkscape-font-specification:'PT Mono Bold';stroke-width:0.264583"
         x="65.829597"
         y="229.45967">15</tspan></text><text
       xml:space="preserve"
       style="font-style:normal;font-weight:normal;font-size:20px;line-height:1.25;font-family:sans-serif;fill:#000000;fill-opacity:1;stroke:none;stroke-width:0.264583"
       x="162.71927"
       y="278.21841"
       id="text1-6-1-8-2"><tspan
         sodipodi:role="line"
         id="tspan1-4-5-0-3"
         style="font-style:normal;font-variant:normal;font-weight:bold;font-stretch:normal;font-size:20px;font-family:'PT Mono';-inkscape-font-specification:'PT Mono Bold';stroke-width:0.264583"
         x="162.71927"
         y="278.21841">10</tspan></text><text
       xml:space="preserve"
       style="font-style:normal;font-weight:normal;font-size:20px;line-height:1.25;font-family:sans-serif;fill:#000000;fill-opacity:1;stroke:none;stroke-width:0.264583"
       x="115.27762"
       y="278.21841"
       id="text1-9-4-0-4-2"><tspan
         sodipodi:role="line"
         id="tspan1-2-8-8-5-7"
         style="font-style:normal;font-variant:normal;font-weight:bold;font-stretch:normal;font-size:20px;font-family:'PT Mono';-inkscape-font-specification:'PT Mono Bold';stroke-width:0.264583"
         x="115.27762"
         y="278.21841">19</tspan></text><text
       xml:space="preserve"
       style="font-style:normal;font-weight:normal;font-size:20px;line-height:1.25;font-family:sans-serif;fill:#000000;fill-opacity:1;stroke:none;stroke-width:0.264583"
       x="210.72888"
       y="278.21841"
       id="text1-91-6-4-7-1"><tspan
         sodipodi:role="line"
         id="tspan1-0-1-9-1-0"
         style="font-style:normal;font-variant:normal;font-weight:bold;font-stretch:normal;font-size:20px;font-family:'PT Mono';-inkscape-font-specification:'PT Mono Bold';stroke-width:0.264583"
         x="210.72888"
         y="278.21841">17</tspan></text><text
       xml:space="preserve"
       style="font-style:normal;font-weight:normal;font-size:20px;line-height:1.25;font-family:sans-serif;fill:#000000;fill-opacity:1;stroke:none;stroke-width:0.264583"
       x="258.22452"
       y="278.35843"
       id="text1-91-0-4-3-0-0"><tspan
         sodipodi:role="line"
         id="tspan1-0-3-0-0-6-9"
         style="font-style:normal;font-variant:normal;font-weight:bold;font-stretch:normal;font-size:20px;font-family:'PT Mono';-inkscape-font-specification:'PT Mono Bold';stroke-width:0.264583"
         x="258.22452"
         y="278.35843">22</tspan></text><text
       xml:space="preserve"
       style="font-style:normal;font-weight:normal;font-size:20px;line-height:1.25;font-family:sans-serif;fill:#000000;fill-opacity:1;stroke:none;stroke-width:0.264583"
       x="71.599586"
       y="278.26877"
       id="text1-91-0-8-8-5-0-7"><tspan
         sodipodi:role="line"
         id="tspan1-0-3-6-1-2-3-1"
         style="font-style:normal;font-variant:normal;font-weight:bold;font-stretch:normal;font-size:20px;font-family:'PT Mono';-inkscape-font-specification:'PT Mono Bold';stroke-width:0.264583"
         x="71.599586"
         y="278.26877">4</tspan></text><g
       style="fill:#000000"
       id="g6"
       transform="matrix(0.06954927,0,0,0.06954927,207.0154,111.76665)"><g
         id="g5">&#10;	<g
   id="g4">&#10;		<g
   id="g3">&#10;			<g
   id="g1">&#10;				<path
   d="m 177.954,144.621 c -1.18,0 -2.34,-0.48 -3.18,-1.32 -0.84,-0.84 -1.32,-2 -1.32,-3.18 0,-1.19 0.48,-2.35 1.32,-3.18 0.84,-0.84 2,-1.32 3.18,-1.32 1.19,0 2.35,0.48 3.18,1.32 0.84,0.83 1.32,1.99 1.32,3.18 0,1.18 -0.48,2.34 -1.32,3.18 -0.83,0.84 -1.99,1.32 -3.18,1.32 z"
   id="path1" />&#10;			</g>&#10;			<g
   id="g2">&#10;				<path
   d="m 238.523,144.621 c -1.18,0 -2.34,-0.48 -3.18,-1.32 -0.84,-0.84 -1.32,-2 -1.32,-3.18 0,-1.19 0.48,-2.35 1.32,-3.18 0.84,-0.84 2,-1.32 3.18,-1.32 1.19,0 2.35,0.48 3.18,1.32 0.84,0.83 1.32,1.99 1.32,3.18 0,1.18 -0.48,2.34 -1.32,3.18 -0.829,0.84 -1.989,1.32 -3.18,1.32 z"
   id="path2" />&#10;			</g>&#10;		</g>&#10;		<path
   d="m 212.518,284.291 h -8.625 c -4.503,0 -8.166,3.664 -8.166,8.167 v 18.996 c 0,4.503 3.663,8.166 8.166,8.166 h 8.625 c 4.503,0 8.166,-3.663 8.166,-8.166 v -18.996 c 0.001,-4.503 -3.663,-8.167 -8.166,-8.167 z m -0.833,26.329 h -6.958 v -17.329 h 6.958 z"
   id="path3" />&#10;		<path
   d="m 363.188,257.958 c -18.798,-50.935 -50.221,-64.284 -62.934,-67.676 1.767,-5.952 2.751,-12.596 2.751,-19.654 0,-23.092 -10.471,-41.78 -24.775,-46.085 2.879,-8.886 5.309,-26.622 -11.856,-43.853 -0.371,-6.354 -2.717,-26.521 -17.449,-41.514 5.168,-3.746 11.926,-7.227 20.468,-9.016 2.409,11.247 12.423,19.708 24.379,19.708 13.747,0 24.931,-11.186 24.931,-24.935 C 318.703,11.185 307.519,0 293.772,0 285.397,0 277.979,4.154 273.455,10.506 225.206,8.474 190.126,18.035 169.18,38.954 c -16.787,16.766 -18.913,35.54 -19.132,41.798 -17.093,17.208 -14.671,34.908 -11.797,43.786 -14.303,4.305 -24.773,22.998 -24.773,46.09 0,15.738 4.864,29.432 12.489,37.924 -8.675,6.429 -28.627,25.324 -37.331,67.564 -6.278,1.586 -10.945,7.266 -10.945,14.031 v 5.635 c 0,3.454 1.219,6.626 3.244,9.118 -1.57,5.45 -4.025,17.315 1.107,26.005 2.258,3.824 5.767,6.535 10.244,8.01 0.291,10.601 7.439,17.188 22.007,22.798 l 32.804,30.746 c -1.315,2.032 -2.087,4.446 -2.087,7.041 v 4.296 c 0,1.627 0.313,3.178 0.861,4.614 -3.526,0.905 -5.87,2.665 -7.333,4.218 -4.562,4.844 -4.545,11.399 -4.491,12.713 v 10.112 c 0,6.988 5.685,12.673 12.673,12.673 h 42.492 c 6.988,0 12.673,-5.685 12.673,-12.673 l 0.001,-35.954 c 0,-2.887 -0.958,-5.549 -2.556,-7.709 l 8.875,-11.154 8.876,11.155 c -1.598,2.16 -2.556,4.821 -2.556,7.708 v 35.954 c 0,6.988 5.686,12.673 12.674,12.673 h 42.491 c 6.989,0 12.674,-5.685 12.674,-12.673 v -10.112 c 0.053,-1.314 0.071,-7.869 -4.491,-12.713 -1.463,-1.553 -3.807,-3.313 -7.334,-4.218 0.548,-1.436 0.861,-2.987 0.861,-4.614 V 399.5 c 0,-2.593 -0.771,-5.005 -2.084,-7.035 l 7.759,-7.254 c 33.828,-0.452 61.444,-13.626 77.893,-37.23 17.22,-24.709 20.215,-57.521 8.22,-90.023 z M 293.772,9 c 8.785,0 15.931,7.148 15.931,15.934 0,8.786 -7.146,15.935 -15.931,15.935 -8.786,0 -15.935,-7.148 -15.935,-15.935 C 277.837,16.148 284.986,9 293.772,9 Z M 175.704,45.159 c 18.615,-18.452 50.144,-27.114 93.768,-25.79 -0.126,0.554 -0.24,1.112 -0.329,1.68 -14.478,2.681 -24.708,9.647 -30.886,15.249 -5.45,4.942 -11.523,12.62 -11.523,15.735 0,2.485 2.015,4.5 4.5,4.5 1.952,0 3.613,-1.243 4.237,-2.98 0.356,-0.641 2.465,-4.231 6.619,-8.481 8.633,8.589 12.415,19.581 14.067,27.461 -20.605,-13.147 -45.834,-12.976 -47.917,-12.938 -2.05,-0.039 -27.342,-0.221 -47.977,12.977 1.713,-7.397 5.783,-17.841 15.441,-27.413 z m -19.218,41.88 c 18.843,-18.91 51.246,-18.452 51.651,-18.444 0.032,0 0.062,-0.008 0.094,-0.008 0.04,0 0.077,0.009 0.117,0.008 0.32,-0.007 32.714,-0.557 51.645,18.444 13.131,13.179 12.21,26.208 10.214,33.299 -14.302,-12.273 -30.151,-16.173 -61.967,-16.173 -31.799,0 -47.646,3.894 -61.941,16.151 -1.965,-7.111 -2.865,-20.177 10.187,-33.277 z m 72.023,67.268 c -0.206,-0.008 -0.412,-0.018 -0.616,-0.022 -2.657,-8.323 -10.46,-14.37 -19.652,-14.37 -9.197,0 -17.002,6.051 -19.656,14.378 -0.208,0.004 -0.414,0.004 -0.623,0.012 -10.592,-0.688 -35.996,-4.433 -38.695,-24.511 2.609,-2.505 5.209,-4.683 7.934,-6.532 1.559,5.538 6.643,9.614 12.671,9.614 h 18.901 c 7.264,0 13.174,-5.91 13.174,-13.174 0,-2.346 -0.628,-4.542 -1.708,-6.449 2.535,-0.059 5.19,-0.089 8.002,-0.089 2.812,0 5.468,0.03 8.004,0.089 -1.081,1.908 -1.71,4.104 -1.71,6.449 0,7.264 5.91,13.174 13.173,13.174 h 18.901 c 6.029,0 11.113,-4.076 12.672,-9.614 2.725,1.85 5.324,4.027 7.933,6.532 -2.702,20.098 -28.135,23.83 -38.705,24.513 z m 13.824,13.121 c 10.614,5.6 16.098,14.421 13.911,18.566 -2.188,4.147 -12.566,4.602 -23.179,-0.999 -4.596,-2.425 -8.549,-5.653 -11.16,-9.03 3.591,-3.194 6.065,-7.622 6.75,-12.613 0.088,-0.004 0.177,-0.012 0.265,-0.017 4.182,0.306 8.945,1.736 13.413,4.093 z m -39.817,12.931 c 1.818,0.527 3.738,0.813 5.725,0.813 1.987,0 3.906,-0.286 5.725,-0.813 1.839,2.605 4.219,5.092 6.985,7.354 -0.073,0.064 -4.882,5.606 -12.71,5.606 -7.828,0 -12.637,-5.541 -12.71,-5.605 2.766,-2.263 5.146,-4.75 6.985,-7.355 z m -5.905,-19.815 c 0,-6.412 5.217,-11.628 11.63,-11.628 6.412,0 11.629,5.216 11.629,11.628 0,6.413 -5.217,11.629 -11.629,11.629 -6.413,0 -11.63,-5.217 -11.63,-11.629 z m -2.036,15.422 c -2.611,3.377 -6.563,6.605 -11.158,9.029 -10.614,5.599 -20.992,5.145 -23.179,0.999 -0.995,-1.886 -0.396,-4.794 1.645,-7.979 2.533,-3.952 7.004,-7.811 12.267,-10.588 4.57,-2.412 9.429,-3.819 13.677,-4.071 0.684,4.991 3.158,9.417 6.748,12.61 z m -28.877,-56.263 c 0,-0.371 0.051,-0.736 0.146,-1.088 3.124,-1.283 6.514,-2.297 10.31,-3.086 h 12.618 c 2.302,0 4.174,1.873 4.174,4.174 0,2.301 -1.873,4.174 -4.174,4.174 h -18.901 c -2.301,0 -4.173,-1.873 -4.173,-4.174 z m 57.837,0 c 0,-2.301 1.872,-4.174 4.173,-4.174 h 12.618 c 3.796,0.789 7.187,1.803 10.311,3.086 0.095,0.353 0.146,0.718 0.146,1.088 0,2.301 -1.873,4.174 -4.174,4.174 h -18.901 c -2.301,0 -4.173,-1.873 -4.173,-4.174 z m -101.057,50.925 c 0,-18.367 8.028,-34.185 18.244,-37.428 2.863,14.306 14.426,22.734 28.07,26.921 -6.169,3.467 -11.291,8.053 -14.487,13.039 -3.896,6.079 -4.615,12.128 -2.027,17.034 2.762,5.234 8.808,7.927 16.194,7.927 5.862,0 12.568,-1.697 19.145,-5.166 0.246,-0.129 0.479,-0.272 0.721,-0.405 0.216,0.625 9.326,9.769 19.903,9.769 10.578,0 19.686,-9.145 19.903,-9.77 0.242,0.133 0.476,0.276 0.722,0.406 6.577,3.47 13.282,5.167 19.145,5.167 7.385,0 13.433,-2.694 16.194,-7.928 4.819,-9.137 -2.404,-22.161 -16.492,-30.08 13.634,-4.19 25.186,-12.616 28.047,-26.914 10.217,3.243 18.245,19.061 18.245,37.428 0,20.624 -10.118,38.049 -22.095,38.049 -2.485,0 -4.5,2.015 -4.5,4.5 0,23.731 -26.543,43.038 -59.168,43.038 -32.625,0 -59.168,-19.307 -59.168,-43.038 0,-2.485 -2.015,-4.5 -4.5,-4.5 h -0.001 c -11.977,0 -22.095,-17.424 -22.095,-38.049 z m 10.694,43.879 c 2.254,1.306 4.639,2.239 7.128,2.735 2.729,26.799 32.146,47.973 67.94,47.973 29.307,0 54.351,-14.193 63.964,-34.046 3.265,1.446 8.038,3.007 13.938,3.366 -0.04,0.376 -0.068,0.743 -0.08,1.093 -3.81,3.919 -6.158,9.232 -6.158,15.081 0,7.344 3.701,13.847 9.354,17.798 -0.772,0.927 -2.046,2.231 -4.138,3.933 -1.757,1.43 -3.215,2.993 -4.427,4.615 -7.62,1.82 -24.31,5.113 -46.537,5.493 -1.321,-6.637 -7.186,-11.656 -14.205,-11.656 h -23.494 c -7.018,0 -12.882,5.017 -14.204,11.652 -33.611,-0.595 -55.827,-8.155 -64.267,-11.604 7.456,-17.209 14.329,-25.348 14.456,-25.496 1.628,-1.871 1.435,-4.708 -0.434,-6.341 -1.871,-1.635 -4.713,-1.444 -6.35,0.427 -0.644,0.737 -10.297,12.057 -19.368,36.131 h -8.35 c 9.21,-41.58 30.128,-57.757 35.232,-61.154 z m 169.009,14.409 c 3.91,-1.024 10.158,-1.373 20.126,0.374 4.314,0.756 5.922,6.361 5.922,9.716 v 19.013 c 0,3.026 -2.461,5.487 -5.487,5.487 h -2.914 c 2.651,-3.597 4.22,-8.018 4.22,-12.797 0,-11.952 -9.791,-21.685 -21.867,-21.793 z m -119.294,94.635 c 2.047,5.519 7.35,9.469 13.572,9.469 h 23.494 c 6.226,0 11.532,-3.956 13.576,-9.48 43.073,-0.52 66.738,-10.218 76.725,-15.702 0.646,2.872 1.232,5.804 1.79,8.763 -7.925,5.29 -39.198,22.921 -103.839,22.921 -64.669,0 -95.941,-17.647 -103.849,-22.928 0.559,-2.952 1.148,-5.815 1.77,-8.572 9.803,5.588 32.816,15.036 76.761,15.529 z M 108.386,298.85 c 1.95,-7.29 4.073,-13.805 6.226,-19.542 9.266,3.828 32.283,11.608 67.36,12.233 v 22.991 c -46.044,-0.679 -67.246,-11.593 -73.586,-15.682 z m 82.586,19.682 v -33.153 c 0,-3.026 2.461,-5.487 5.487,-5.487 h 23.494 c 3.025,0 5.486,2.461 5.486,5.487 v 33.153 c 0,3.026 -2.461,5.487 -5.486,5.487 h -23.494 c -3.025,10e-4 -5.487,-2.461 -5.487,-5.487 z m 83.922,-21.277 c 0.116,1.347 0.831,2.57 1.948,3.332 0.949,0.647 5.742,3.48 17.819,4.335 -12.013,4.416 -31.472,9.161 -60.222,9.616 v -23.016 c 14.313,-0.262 28.827,-1.742 41.459,-4.226 -1.361,5.341 -1.033,9.628 -1.004,9.959 z m 27.083,-1.087 c -9.737,0 -15.342,-1.307 -18.07,-2.219 0.267,-3.584 1.521,-10.156 6.894,-14.528 3.451,-2.808 5.633,-5.235 6.943,-7.322 1.371,0.264 2.786,0.407 4.234,0.407 1.447,0 2.858,-0.148 4.228,-0.414 1.307,2.088 3.491,4.517 6.947,7.329 5.376,4.374 6.629,10.952 6.895,14.528 -2.728,0.913 -8.334,2.219 -18.071,2.219 z m 13.071,-45.459 c 0,7.056 -5.863,12.797 -13.07,12.797 -7.208,0 -13.073,-5.741 -13.073,-12.797 0,-7.057 5.864,-12.798 13.073,-12.798 7.207,0 13.07,5.741 13.07,12.798 z M 93.147,329.534 c -1.424,-0.782 -2.542,-1.833 -3.348,-3.192 -2.638,-4.45 -1.946,-11.449 -0.837,-16.445 1.036,0.236 2.109,0.372 3.216,0.372 h 4.234 c -1.239,6.003 -2.343,12.422 -3.265,19.265 z m -0.97,-28.265 c -3.025,0 -5.487,-2.461 -5.487,-5.486 v -5.635 c 0,-3.025 2.461,-5.487 5.487,-5.487 h 10.962 c -0.022,0.067 -3.616,12.15 -4.705,16.608 z m 100.708,134.185 c 0,2.025 -1.648,3.673 -3.673,3.673 H 146.72 c -2.025,0 -3.673,-1.648 -3.673,-3.673 v -10.219 c 0,-0.065 -0.003,-0.169 -0.006,-0.233 -0.046,-1.082 0.237,-4.311 2.082,-6.237 1.267,-1.322 3.167,-1.965 5.81,-1.965 h 37.95 c 1.397,0 2.741,-0.228 4.003,-0.637 z m 0.001,-31.657 c -0.001,2.207 -1.796,4.003 -4.003,4.003 h -30.87 c -2.208,0 -4.003,-1.796 -4.003,-4.003 V 399.5 c 0,-2.207 1.796,-4.003 4.003,-4.003 h 30.87 c 2.208,0 4.003,1.796 4.003,4.003 z m -1.111,-16.965 c -0.932,-0.213 -1.897,-0.335 -2.892,-0.335 h -30.87 c -1.24,0 -2.436,0.185 -3.572,0.511 l -20.496,-19.209 c 3.111,0.814 6.394,1.634 9.867,2.467 25.081,6.02 44.229,7.483 54.986,7.741 z m 16.107,-17.914 c -52.351,0 -109.178,-17.881 -106.476,-32.97 0.593,-3.311 0.831,-6.571 1.308,-9.714 12.55,7.503 44.95,22.287 105.491,22.287 60.505,0 92.911,-14.769 105.477,-22.276 0.486,3.202 0.741,6.458 1.322,9.703 2.566,14.32 -54.771,32.97 -107.122,32.97 z m 63.407,49.847 c 1.845,1.926 2.129,5.155 2.084,6.201 -0.005,0.09 -0.008,10.489 -0.008,10.489 0,2.025 -1.648,3.673 -3.674,3.673 H 227.2 c -2.026,0 -3.674,-1.648 -3.674,-3.673 v -19.292 c 1.262,0.41 2.606,0.637 4.003,0.637 h 37.95 c 2.643,0 4.543,0.642 5.81,1.965 z M 223.525,403.796 V 399.5 c 0,-2.207 1.796,-4.003 4.003,-4.003 h 30.869 c 2.208,0 4.004,1.796 4.004,4.003 v 4.296 c 0,2.208 -1.796,4.003 -4.004,4.003 h -30.869 c -2.207,0.001 -4.003,-1.795 -4.003,-4.003 z m 38.45,-16.787 c -1.138,-0.326 -2.336,-0.512 -3.577,-0.512 h -30.869 c -0.995,0 -1.96,0.123 -2.892,0.335 l -7.043,-8.851 c 0.15,0.002 0.311,0.004 0.459,0.006 2.302,0.031 4.369,0.058 6.327,0.058 11.465,0 19.174,-0.949 48.199,-7.775 3.479,-0.818 6.779,-1.626 9.904,-2.435 z m 85.61,-44.174 c -13.051,18.728 -34.176,30.132 -60.255,32.789 l 14.853,-13.887 c 16.043,-6.229 23.275,-13.86 21.76,-26.833 -1.262,-10.812 -3.077,-21.294 -5.401,-31.226 5.434,-1.16 7.916,-2.645 8.57,-3.091 1.117,-0.761 1.832,-1.984 1.948,-3.331 0.054,-0.628 1.189,-15.451 -10.15,-24.75 h 3.832 c 7.988,0 14.487,-6.499 14.487,-14.487 v -19.013 c 0,-7.82 -4.183,-16.971 -13.368,-18.581 -16.163,-2.833 -27.403,-1.182 -33.407,4.907 -0.077,0.078 -0.142,0.158 -0.216,0.237 -6.746,0.319 -12.019,-1.515 -14.983,-2.908 0.431,-1.777 0.741,-3.584 0.927,-5.419 8.595,-1.716 15.976,-8.55 20.807,-18.479 3.885,0.97 10.952,3.318 19.104,8.765 11.438,7.643 27.429,23.136 38.652,53.546 10.961,29.701 8.351,59.502 -7.16,81.761 z"
   id="path4" />&#10;	</g>&#10;</g></g></g></svg>
