999
"DXF R12 Output" (www.mydxf.blogspot.com)
 0 
SECTION
 2 
HEADER
 9 
$ACADVER
 1 
AC1009
 9 
$EXTMIN
 10 
 0 
 20 
 0 
 9 
$EXTMAX
 10 
 8.5 
 20 
 11 
 0 
ENDSEC
 0 
SECTION
 2 
ENTITIES
0
LINE
8
Layer 1
10
59.321207
20
299.908752
11
290.678789
21
299.908752
0
LINE
8
Layer 1
10
290.678789
20
299.908752
11
292.487874
21
299.729762
0
LINE
8
Layer 1
10
292.487874
20
299.729762
11
294.210942
21
299.206163
0
LINE
8
Layer 1
10
294.210942
20
299.206163
11
295.799575
21
298.358011
0
LINE
8
Layer 1
10
295.799575
20
298.358011
11
297.205356
21
297.205360
0
LINE
8
Layer 1
10
297.205356
20
297.205360
11
298.358007
21
295.799579
0
LINE
8
Layer 1
10
298.358007
20
295.799579
11
299.206159
21
294.210946
0
LINE
8
Layer 1
10
299.206159
20
294.210946
11
299.729758
21
292.487878
0
LINE
8
Layer 1
10
299.729758
20
292.487878
11
299.908748
21
290.678793
0
LINE
8
Layer 1
10
299.908748
20
290.678793
11
299.908748
21
59.321211
0
LINE
8
Layer 1
10
299.908748
20
59.321211
11
299.729758
21
57.512126
0
LINE
8
Layer 1
10
299.729758
20
57.512126
11
299.206159
21
55.789058
0
LINE
8
Layer 1
10
299.206159
20
55.789058
11
298.358007
21
54.200425
0
LINE
8
Layer 1
10
298.358007
20
54.200425
11
297.205356
21
52.794644
0
LINE
8
Layer 1
10
297.205356
20
52.794644
11
295.799575
21
51.641993
0
LINE
8
Layer 1
10
295.799575
20
51.641993
11
294.210942
21
50.793841
0
LINE
8
Layer 1
10
294.210942
20
50.793841
11
292.487874
21
50.270242
0
LINE
8
Layer 1
10
292.487874
20
50.270242
11
290.678789
21
50.091252
0
LINE
8
Layer 1
10
290.678789
20
50.091252
11
59.321207
21
50.091252
0
LINE
8
Layer 1
10
59.321207
20
50.091252
11
57.512122
21
50.270242
0
LINE
8
Layer 1
10
57.512122
20
50.270242
11
55.789054
21
50.793841
0
LINE
8
Layer 1
10
55.789054
20
50.793841
11
54.200421
21
51.641993
0
LINE
8
Layer 1
10
54.200421
20
51.641993
11
52.794640
21
52.794644
0
LINE
8
Layer 1
10
52.794640
20
52.794644
11
51.641989
21
54.200425
0
LINE
8
Layer 1
10
51.641989
20
54.200425
11
50.793837
21
55.789058
0
LINE
8
Layer 1
10
50.793837
20
55.789058
11
50.270238
21
57.512126
0
LINE
8
Layer 1
10
50.270238
20
57.512126
11
50.091248
21
59.321211
0
LINE
8
Layer 1
10
50.091248
20
59.321211
11
50.091248
21
290.678793
0
LINE
8
Layer 1
10
50.091248
20
290.678793
11
50.270238
21
292.487878
0
LINE
8
Layer 1
10
50.270238
20
292.487878
11
50.793837
21
294.210946
0
LINE
8
Layer 1
10
50.793837
20
294.210946
11
51.641989
21
295.799579
0
LINE
8
Layer 1
10
51.641989
20
295.799579
11
52.794640
21
297.205360
0
LINE
8
Layer 1
10
52.794640
20
297.205360
11
54.200421
21
298.358011
0
LINE
8
Layer 1
10
54.200421
20
298.358011
11
55.789054
21
299.206163
0
LINE
8
Layer 1
10
55.789054
20
299.206163
11
57.512122
21
299.729762
0
LINE
8
Layer 1
10
57.512122
20
299.729762
11
59.321207
21
299.908752
0
LINE
8
Layer 1
10
59.321207
20
299.908752
11
59.321207
21
299.908752
0
LINE
8
Layer 1
10
59.999832
20
290.000164
11
99.633522
21
290.000164
0
LINE
8
Layer 1
10
99.633522
20
290.000164
11
99.633522
21
250.366474
0
LINE
8
Layer 1
10
99.633522
20
250.366474
11
59.999832
21
250.366474
0
LINE
8
Layer 1
10
59.999832
20
250.366474
11
59.999832
21
290.000164
0
LINE
8
Layer 1
10
107.591450
20
290.000164
11
147.225140
21
290.000164
0
LINE
8
Layer 1
10
147.225140
20
290.000164
11
147.225140
21
250.366474
0
LINE
8
Layer 1
10
147.225140
20
250.366474
11
107.591450
21
250.366474
0
LINE
8
Layer 1
10
107.591450
20
250.366474
11
107.591450
21
290.000164
0
LINE
8
Layer 1
10
155.183150
20
290.000164
11
194.816840
21
290.000164
0
LINE
8
Layer 1
10
194.816840
20
290.000164
11
194.816840
21
250.366474
0
LINE
8
Layer 1
10
194.816840
20
250.366474
11
155.183150
21
250.366474
0
LINE
8
Layer 1
10
155.183150
20
250.366474
11
155.183150
21
290.000164
0
LINE
8
Layer 1
10
202.774920
20
290.000164
11
242.408610
21
290.000164
0
LINE
8
Layer 1
10
242.408610
20
290.000164
11
242.408610
21
250.366474
0
LINE
8
Layer 1
10
242.408610
20
250.366474
11
202.774920
21
250.366474
0
LINE
8
Layer 1
10
202.774920
20
250.366474
11
202.774920
21
290.000164
0
LINE
8
Layer 1
10
250.366410
20
290.000164
11
290.000100
21
290.000164
0
LINE
8
Layer 1
10
290.000100
20
290.000164
11
290.000100
21
250.366474
0
LINE
8
Layer 1
10
290.000100
20
250.366474
11
250.366410
21
250.366474
0
LINE
8
Layer 1
10
250.366410
20
250.366474
11
250.366410
21
290.000164
0
LINE
8
Layer 1
10
59.999832
20
242.408520
11
99.633522
21
242.408520
0
LINE
8
Layer 1
10
99.633522
20
242.408520
11
99.633522
21
202.774830
0
LINE
8
Layer 1
10
99.633522
20
202.774830
11
59.999832
21
202.774830
0
LINE
8
Layer 1
10
59.999832
20
202.774830
11
59.999832
21
242.408520
0
LINE
8
Layer 1
10
107.591450
20
242.408520
11
147.225140
21
242.408520
0
LINE
8
Layer 1
10
147.225140
20
242.408520
11
147.225140
21
202.774830
0
LINE
8
Layer 1
10
147.225140
20
202.774830
11
107.591450
21
202.774830
0
LINE
8
Layer 1
10
107.591450
20
202.774830
11
107.591450
21
242.408520
0
LINE
8
Layer 1
10
155.183150
20
242.408520
11
194.816840
21
242.408520
0
LINE
8
Layer 1
10
194.816840
20
242.408520
11
194.816840
21
202.774830
0
LINE
8
Layer 1
10
194.816840
20
202.774830
11
155.183150
21
202.774830
0
LINE
8
Layer 1
10
155.183150
20
202.774830
11
155.183150
21
242.408520
0
LINE
8
Layer 1
10
202.774930
20
242.408520
11
242.408620
21
242.408520
0
LINE
8
Layer 1
10
242.408620
20
242.408520
11
242.408620
21
202.774830
0
LINE
8
Layer 1
10
242.408620
20
202.774830
11
202.774930
21
202.774830
0
LINE
8
Layer 1
10
202.774930
20
202.774830
11
202.774930
21
242.408520
0
LINE
8
Layer 1
10
250.366440
20
242.408520
11
290.000130
21
242.408520
0
LINE
8
Layer 1
10
290.000130
20
242.408520
11
290.000130
21
202.774830
0
LINE
8
Layer 1
10
290.000130
20
202.774830
11
250.366440
21
202.774830
0
LINE
8
Layer 1
10
250.366440
20
202.774830
11
250.366440
21
242.408520
0
LINE
8
Layer 1
10
59.999832
20
194.816850
11
99.633522
21
194.816850
0
LINE
8
Layer 1
10
99.633522
20
194.816850
11
99.633522
21
155.183160
0
LINE
8
Layer 1
10
99.633522
20
155.183160
11
59.999832
21
155.183160
0
LINE
8
Layer 1
10
59.999832
20
155.183160
11
59.999832
21
194.816850
0
LINE
8
Layer 1
10
107.591450
20
194.816850
11
147.225140
21
194.816850
0
LINE
8
Layer 1
10
147.225140
20
194.816850
11
147.225140
21
155.183160
0
LINE
8
Layer 1
10
147.225140
20
155.183160
11
107.591450
21
155.183160
0
LINE
8
Layer 1
10
107.591450
20
155.183160
11
107.591450
21
194.816850
0
LINE
8
Layer 1
10
155.183150
20
194.816850
11
194.816840
21
194.816850
0
LINE
8
Layer 1
10
194.816840
20
194.816850
11
194.816840
21
155.183160
0
LINE
8
Layer 1
10
194.816840
20
155.183160
11
155.183150
21
155.183160
0
LINE
8
Layer 1
10
155.183150
20
155.183160
11
155.183150
21
194.816850
0
LINE
8
Layer 1
10
202.774930
20
194.816850
11
242.408620
21
194.816850
0
LINE
8
Layer 1
10
242.408620
20
194.816850
11
242.408620
21
155.183160
0
LINE
8
Layer 1
10
242.408620
20
155.183160
11
202.774930
21
155.183160
0
LINE
8
Layer 1
10
202.774930
20
155.183160
11
202.774930
21
194.816850
0
LINE
8
Layer 1
10
250.366440
20
194.816850
11
290.000130
21
194.816850
0
LINE
8
Layer 1
10
290.000130
20
194.816850
11
290.000130
21
155.183160
0
LINE
8
Layer 1
10
290.000130
20
155.183160
11
250.366440
21
155.183160
0
LINE
8
Layer 1
10
250.366440
20
155.183160
11
250.366440
21
194.816850
0
LINE
8
Layer 1
10
59.999832
20
147.225080
11
99.633522
21
147.225080
0
LINE
8
Layer 1
10
99.633522
20
147.225080
11
99.633522
21
107.591390
0
LINE
8
Layer 1
10
99.633522
20
107.591390
11
59.999832
21
107.591390
0
LINE
8
Layer 1
10
59.999832
20
107.591390
11
59.999832
21
147.225080
0
LINE
8
Layer 1
10
107.591450
20
147.225080
11
147.225140
21
147.225080
0
LINE
8
Layer 1
10
147.225140
20
147.225080
11
147.225140
21
107.591390
0
LINE
8
Layer 1
10
147.225140
20
107.591390
11
107.591450
21
107.591390
0
LINE
8
Layer 1
10
107.591450
20
107.591390
11
107.591450
21
147.225080
0
LINE
8
Layer 1
10
155.183150
20
147.225080
11
194.816840
21
147.225080
0
LINE
8
Layer 1
10
194.816840
20
147.225080
11
194.816840
21
107.591390
0
LINE
8
Layer 1
10
194.816840
20
107.591390
11
155.183150
21
107.591390
0
LINE
8
Layer 1
10
155.183150
20
107.591390
11
155.183150
21
147.225080
0
LINE
8
Layer 1
10
202.774930
20
147.225080
11
242.408620
21
147.225080
0
LINE
8
Layer 1
10
242.408620
20
147.225080
11
242.408620
21
107.591390
0
LINE
8
Layer 1
10
242.408620
20
107.591390
11
202.774930
21
107.591390
0
LINE
8
Layer 1
10
202.774930
20
107.591390
11
202.774930
21
147.225080
0
LINE
8
Layer 1
10
250.366440
20
147.225080
11
290.000130
21
147.225080
0
LINE
8
Layer 1
10
290.000130
20
147.225080
11
290.000130
21
107.591390
0
LINE
8
Layer 1
10
290.000130
20
107.591390
11
250.366440
21
107.591390
0
LINE
8
Layer 1
10
250.366440
20
107.591390
11
250.366440
21
147.225080
0
LINE
8
Layer 1
10
59.999832
20
99.633560
11
99.633522
21
99.633560
0
LINE
8
Layer 1
10
99.633522
20
99.633560
11
99.633522
21
59.999870
0
LINE
8
Layer 1
10
99.633522
20
59.999870
11
59.999832
21
59.999870
0
LINE
8
Layer 1
10
59.999832
20
59.999870
11
59.999832
21
99.633560
0
LINE
8
Layer 1
10
107.591450
20
99.633560
11
147.225140
21
99.633560
0
LINE
8
Layer 1
10
147.225140
20
99.633560
11
147.225140
21
59.999870
0
LINE
8
Layer 1
10
147.225140
20
59.999870
11
107.591450
21
59.999870
0
LINE
8
Layer 1
10
107.591450
20
59.999870
11
107.591450
21
99.633560
0
LINE
8
Layer 1
10
155.183170
20
99.633560
11
194.816860
21
99.633560
0
LINE
8
Layer 1
10
194.816860
20
99.633560
11
194.816860
21
59.999870
0
LINE
8
Layer 1
10
194.816860
20
59.999870
11
155.183170
21
59.999870
0
LINE
8
Layer 1
10
155.183170
20
59.999870
11
155.183170
21
99.633560
0
LINE
8
Layer 1
10
202.774930
20
99.633560
11
242.408620
21
99.633560
0
LINE
8
Layer 1
10
242.408620
20
99.633560
11
242.408620
21
59.999870
0
LINE
8
Layer 1
10
242.408620
20
59.999870
11
202.774930
21
59.999870
0
LINE
8
Layer 1
10
202.774930
20
59.999870
11
202.774930
21
99.633560
0
LINE
8
Layer 1
10
250.366440
20
99.633560
11
290.000130
21
99.633560
0
LINE
8
Layer 1
10
290.000130
20
99.633560
11
290.000130
21
59.999870
0
LINE
8
Layer 1
10
290.000130
20
59.999870
11
250.366440
21
59.999870
0
LINE
8
Layer 1
10
250.366440
20
59.999870
11
250.366440
21
99.633560
 0 
ENDSEC
 0 
EOF